<svg width="75" height="128" viewBox="0 0 75 128" fill="none" xmlns="http://www.w3.org/2000/svg">
	<path d="M73.0031 92.2796L72.9951 91.9259C72.9811 91.958 72.9811 92.0565 73.0031 92.2796Z" fill="#495E57"/>
	<path d="M72.8151 92.5972C72.8151 92.5972 72.8151 92.6198 72.813 92.6281C72.8213 92.6239 72.8213 92.6137 72.8151 92.5972Z" fill="#495E57"/>
	<path d="M28.5734 24.8808C28.4433 24.8949 28.3313 24.915 28.2693 24.9452C28.4573 24.9331 28.5434 24.909 28.5734 24.8808Z" fill="#495E57"/>
	<path d="M49.4017 21.1323C49.3937 21.1524 49.3877 21.1705 49.3877 21.1866C49.4177 21.1725 49.4277 21.1565 49.4017 21.1323Z" fill="#495E57"/>
	<path d="M72.9171 88.1331C72.9131 88.1874 72.9071 88.2437 72.9031 88.2939C72.9491 88.3261 72.9451 88.1733 72.9171 88.1331Z" fill="#495E57"/>
	<path d="M23.1933 24.6738C23.1753 24.6879 23.1593 24.704 23.1513 24.7241C23.1753 24.704 23.1853 24.6879 23.1933 24.6738Z" fill="#495E57"/>
	<path d="M73.7974 75.3139C73.7874 75.2656 73.7834 75.2134 73.7774 75.1631C73.7774 75.2174 73.7814 75.2696 73.7974 75.3139Z" fill="#495E57"/>
	<path d="M53.5973 24.9934C53.6714 24.9733 53.7114 24.9512 53.7334 24.9311C53.6513 24.9431 53.5913 24.9632 53.5973 24.9934Z" fill="#495E57"/>
	<path d="M53.6634 24.4708C52.603 24.6216 53.8895 24.7723 53.7334 24.9331C54.0155 24.8909 54.6198 24.919 54.3337 24.7984C54.8899 25.12 56.0143 24.6216 56.6166 24.8768C56.6426 24.8447 56.2944 24.7401 56.7106 24.6597C57.3329 24.6276 57.2868 24.7783 57.5409 24.8426C57.725 24.7502 58.6694 24.6859 58.5794 24.7301C58.9935 24.6517 58.1392 24.4165 58.7154 24.2779C59.1056 24.0628 59.6378 24.2457 60.098 24.1854C60.6522 24.3361 59.5457 24.2899 59.3157 24.3623L60.8823 24.2638C61.3425 24.3743 60.6762 24.4728 60.214 24.4487C60.8383 24.5854 61.6446 24.4608 61.8287 24.2839C62.2208 24.3221 62.4289 24.2839 62.797 24.3562C62.4289 24.4547 62.4529 24.7623 61.8767 24.8145C60.9303 24.7944 62.2208 24.5793 61.4145 24.5331L61.3445 24.718C60.9983 24.6135 60.7242 24.7502 60.3541 24.7643C60.148 24.718 60.4001 24.6979 60.5381 24.6718C59.8679 24.6859 59.3357 24.5874 58.8315 24.7964C59.7338 24.9653 61.0924 24.7361 61.4865 24.9472L63.2832 24.6919C63.2832 24.6075 62.659 24.4688 63.1672 24.3442C63.3753 24.5592 63.9055 24.6577 64.5998 24.6959C64.3437 24.4608 65.7062 24.4849 65.3581 24.2959C65.0359 24.4145 64.8739 24.2176 64.8279 24.1975C65.4981 24.1834 64.9179 23.9804 65.286 23.9683C66.5085 24.0206 65.24 24.1191 66.4405 24.2035C66.1864 24.308 65.5401 24.5452 64.8739 24.6437C64.9199 24.7482 65.5401 24.6296 65.8202 24.7482C65.4261 24.6236 66.0964 24.5251 65.7722 24.4728C66.7426 24.3743 67.8711 24.1311 69.0475 24.0789C68.8635 24.4266 67.0647 24.3422 67.4369 24.7542C68.0131 24.702 68.0111 24.5311 68.4733 24.5572C68.6694 24.6618 69.0095 24.6678 69.3977 24.6477C69.4957 24.6417 69.5957 24.6356 69.6978 24.6276L69.7738 24.6216C69.7978 24.6216 69.7878 24.6175 69.7958 24.6155L69.8238 24.6035C69.8618 24.5894 69.9039 24.5753 69.9419 24.5753C69.9339 24.5412 69.9199 24.505 69.8999 24.4708C69.9939 24.3844 70.1239 24.4507 70.182 24.4708L70.128 24.517C70.168 24.4949 70.212 24.4728 70.258 24.4507C70.264 24.4588 70.258 24.4708 70.244 24.4829C70.274 24.4648 70.304 24.4527 70.336 24.4447C70.356 24.4809 70.35 24.5653 70.346 24.6497C70.342 24.7341 70.338 24.8165 70.364 24.8889C70.4481 24.8748 70.4501 24.8185 70.4341 24.7602C70.4161 24.6999 70.3821 24.6497 70.3901 24.5974C70.4101 24.5713 70.4381 24.499 70.4741 24.4246C70.5121 24.3522 70.5581 24.2738 70.6161 24.2819C70.6161 24.4467 70.6682 24.5552 70.7182 24.708C70.7422 24.7824 70.7682 24.8668 70.7862 24.9632C70.7882 24.9773 70.7902 24.9833 70.7922 25.0055L70.7982 25.0879C70.8022 25.1441 70.8042 25.2004 70.8082 25.2587C70.8122 25.3753 70.8162 25.4959 70.8142 25.6245L70.8662 25.3009C70.9843 25.6245 70.9263 26.0647 70.9323 26.5511C70.8162 27.4334 70.6962 25.9039 70.5981 26.4385C70.4481 26.0928 70.6181 25.4878 70.4021 25.3974L70.168 25.9521C70.312 26.4164 70.0979 26.9269 70.13 27.2525L70.234 26.9028C70.4161 26.9712 70.28 27.2948 70.254 27.4596L70.5201 27.2244C70.5661 26.7159 70.332 26.3682 70.4861 25.9984C70.5721 26.9008 70.7862 26.6918 70.7922 27.7812C70.6882 27.8294 70.7542 27.5721 70.6762 27.4596C70.6041 27.8314 70.8202 28.2213 70.7342 28.8243C70.6682 28.4786 70.5641 27.9219 70.4201 28.364L70.6222 28.6876C70.5901 28.965 70.5121 28.8524 70.5061 28.965C70.4681 29.361 70.7142 28.8746 70.6622 29.4996C70.6222 29.5921 70.5781 29.7991 70.5321 29.7087C70.5261 30.4262 70.5981 30.0544 70.6962 30.7257C70.6962 30.1247 71.0023 30.1026 71.0343 30.7257C71.0023 31.606 71.1724 32.207 70.9183 32.812L71.0483 33.2059C70.8582 32.9527 70.9823 33.7627 70.9503 34.0421C70.7422 34.1345 70.9563 32.7216 70.6181 32.7216C70.5861 33.3004 70.4821 33.0472 70.3901 32.8622C70.4221 33.4893 70.6302 33.0934 70.7682 33.3708C70.6842 33.3708 70.7422 34.438 70.5601 34.0682C70.5481 34.6008 70.7622 34.6933 70.7242 35.0852C70.6402 35.0249 70.5341 34.9586 70.4261 34.9948C70.4961 35.041 70.4101 35.5455 70.4041 35.642C70.4441 35.5495 70.5801 35.8269 70.5221 35.3646C70.6842 35.4792 70.5281 36.454 70.6662 36.4279C70.4781 36.4761 70.6282 37.4248 70.5501 37.9112C70.9943 37.8629 70.3801 37.0087 70.7462 36.8459C70.8963 37.4931 70.7602 39.0247 70.9563 40.0658C70.8723 40.9683 70.7862 40.0658 70.6242 40.2507C70.5521 39.4186 70.6822 39.2096 70.6041 38.49C70.5281 39.2779 70.5721 40.5763 70.7102 41.1532C70.7302 42.0114 70.268 42.1059 70.3781 43.149C70.5201 43.0103 70.5541 43.0325 70.6061 42.7069C70.6582 42.9842 70.6061 43.3098 70.6061 43.6113C70.6962 43.7962 70.7162 43.147 70.7942 43.5631C70.7682 43.7259 70.7482 44.0736 70.6502 44.0053L70.6362 43.9349C70.7662 44.9298 70.29 44.6545 70.5641 45.5107C70.6362 45.4424 70.5441 45.2554 70.5901 45.0464C70.7002 44.8856 70.8562 45.4162 70.9023 45.8122C70.8042 45.7418 70.8823 46.1599 70.8502 46.4373C70.6862 46.6242 70.8042 45.7418 70.6942 45.6032L70.6682 46.3689L70.6942 46.2081L70.8502 47.0402C70.7982 46.4594 71.0523 46.7609 71.0723 47.0161C71.0403 47.595 71.0083 48.1738 70.8242 48.1055C71.0063 48.1759 71.0003 48.8934 71.0403 49.4019C71.1063 48.8452 71.1964 49.3316 71.2564 49.4924L71.0743 50.3265C71.0223 49.4461 70.9103 50.5114 70.7862 50.3044C70.5961 50.0511 70.6942 49.5165 70.7202 49.0522C70.3821 49.9587 70.9023 50.3265 70.7422 51.1144C70.6582 51.1144 70.5601 51.044 70.5781 50.6983C70.5201 50.837 70.7422 51.4159 70.6442 51.9505C70.7022 51.8098 70.8723 51.5083 70.9443 52.0409L70.7362 52.7384C70.6902 53.5504 70.9583 53.0158 71.0563 53.6851L71.2004 53.2449C71.3825 53.3132 71.2004 54.1473 71.4025 54.1695C71.4085 53.7534 71.2524 53.5202 71.3104 53.0821C71.5065 52.9173 71.4145 53.6368 71.5205 53.8881C71.4365 54.7925 71.4285 54.6076 71.2724 55.2809C70.9663 55.3051 70.8943 54.1695 70.4961 54.3122C70.5481 55.1925 70.6462 56.4668 70.5301 57.0436C70.6222 57.8315 70.8622 57.7612 71.0383 57.6446C71.0703 57.9702 71.0443 58.131 71.0003 58.34L70.9023 57.9702C71.0003 58.943 71.1063 59.4978 71.0983 60.5188C71.1504 61.0957 71.3344 60.8625 71.4765 60.7238L71.5105 61.3489L71.5485 61.2544C71.7446 61.3931 71.6786 61.9499 71.6726 62.3659C71.5885 62.3659 71.5685 62.1127 71.5165 62.1368C71.4445 62.5066 71.4645 63.0634 71.5505 63.3628C71.4665 63.3628 71.2764 63.1096 71.3344 62.6694C71.3544 62.6232 71.3865 62.6453 71.4065 62.5991L71.2944 61.8574C71.3985 62.7136 71.1844 63.2262 70.9823 63.2041C71.0863 64.0603 71.1904 62.5066 71.2684 63.5257C70.8723 64.8703 71.3804 66.0742 70.8142 66.8179C70.9323 67.441 71.1284 68.1826 71.1404 69.1554C71.3104 69.1554 71.2064 69.8046 71.4145 69.7102C71.6346 68.7816 71.0883 67.9736 71.4005 67.2299C71.3224 66.8139 71.1784 66.9546 71.0883 66.7677C71.0743 66.3998 71.0943 66.0501 71.1984 66.0019C71.3024 66.8581 71.6085 66.233 71.6165 67.3204C71.7606 67.1817 71.7086 66.2993 71.7466 65.9074C71.8246 66.022 71.9167 65.9054 71.9807 65.6501C72.1168 65.9295 72.2348 66.5526 72.3528 66.8762C72.2748 66.7616 72.2288 66.9707 72.1828 66.8762L72.4249 68.0118C72.3208 68.3595 72.1968 68.454 72.1047 68.2671C72.0527 68.8942 72.2808 69.9574 72.0267 69.9594C72.0667 70.7694 72.1768 69.7021 72.2488 69.6338L72.2608 69.7042L72.2408 68.8479C72.5349 68.7535 72.1708 69.8227 72.4509 69.9594C72.9851 70.0941 72.2808 71.1674 72.3669 71.7663L71.9827 71.0729L72.0667 71.6759C71.9167 71.3282 71.6626 71.3302 71.5065 70.7996C71.4945 71.6317 71.3765 72.8155 71.4485 73.3502C71.3184 73.5592 71.1944 73.6496 71.0643 73.5592C71.3064 74.3933 70.9403 74.8576 70.9343 75.5772C71.0783 76.3389 71.1304 74.8114 71.3184 75.3661C71.2204 75.5973 71.2984 76.0153 71.3384 76.2223C71.2664 75.9912 71.3965 75.1792 71.4625 74.6224C71.4565 75.0405 71.6446 74.9943 71.7226 75.1088L71.7626 74.4114C71.9967 74.4576 71.7806 75.2676 71.8987 75.5912C71.6906 75.3862 71.6826 75.4988 71.4745 75.2938C71.5585 75.8967 71.5585 76.7992 71.4305 77.3117C71.3464 77.6132 71.3264 77.0585 71.2664 76.8957C71.1224 77.0343 71.3524 77.4966 71.1744 77.6132C71.0443 77.5208 71.1624 77.2434 71.1224 77.0343L71.0583 78.795C70.9743 78.795 70.9483 78.3549 70.9803 78.0775C70.8823 78.6121 70.9283 79.0041 71.2164 79.6292C71.1324 80.2321 71.0083 80.9256 70.8843 80.7205C70.9363 80.9979 71.0143 80.813 71.1003 80.811C71.0543 81.623 71.3544 81.7135 71.3604 82.1999L71.5165 81.83C71.3544 82.6159 71.7766 82.0129 71.6526 82.7084C71.4905 82.5958 71.3004 82.64 71.1244 82.7566C71.2864 82.8712 71.1444 83.3134 71.1444 83.6128C71.3084 83.4259 71.2944 84.26 71.4565 83.7736C71.5885 84.4691 71.3665 84.7927 71.5745 85.3032C71.6266 84.9796 71.7446 85.9042 71.8606 85.6248C71.8727 86.2981 71.6786 86.7624 71.5025 86.5775C71.5165 86.3443 71.5865 85.9725 71.4505 85.9986L71.4825 87.2247C71.3985 87.5282 71.3605 87.9201 71.1704 87.9683C71.3865 88.3603 71.0203 89.1261 71.2744 89.4275C71.1104 89.0115 71.3324 88.6839 71.3584 88.5251L71.3945 88.716C71.3945 88.6879 71.3985 88.6577 71.4045 88.6175L71.7306 89.1482C71.8606 88.6396 71.5165 89.0577 71.5225 88.3382C71.8286 87.7131 71.9847 89.7511 72.1748 89.1019C72.2728 88.5693 71.9787 88.6638 71.8687 88.2236L71.8626 88.3382L71.7326 87.3412C71.8366 87.295 71.9227 87.5965 71.9227 87.5965C71.9227 86.3905 72.0847 86.2036 72.1227 84.9072C72.0827 85.0017 71.7646 85.2549 71.7106 84.6761C71.6326 84.26 71.8206 84.2118 71.8406 83.8661C71.8787 84.0731 72.0567 84.258 71.9387 84.5354L72.1608 84.5133C72.4289 85.4841 72.643 84.9756 72.723 86.2961C72.8851 86.3564 72.9691 87.3131 72.9231 88.0306L73.0691 87.6829C73.3492 88.4226 72.841 87.8236 73.0751 88.7723C72.781 89.1663 72.4369 89.8878 72.1948 89.3552C72.1247 90.0285 72.2808 90.2576 72.2808 90.8626C72.0407 91.2325 72.0207 90.6777 71.7786 90.7481C71.8046 91.1902 71.9087 91.745 72.0467 91.4174L71.9507 92.2535C71.8987 92.2756 71.8987 91.9761 71.9047 91.8596C71.8526 92.1852 71.9707 92.8102 72.0607 92.9931C72.0487 92.9248 72.0087 92.7138 72.0487 92.6233C72.1127 92.971 72.2308 93.5961 72.2968 93.6403C72.1728 93.1318 72.4469 93.0856 72.2908 92.553C72.3548 92.5992 72.4869 92.6896 72.4549 92.969C72.5989 92.5289 72.5729 92.0887 72.735 91.9038C72.6129 92.2756 72.789 92.5128 72.815 92.5912C72.861 92.2575 72.815 91.5942 72.747 91.3711C73.0211 91.3229 72.701 90.0747 72.9811 90.5129C72.883 90.4426 72.8771 89.9562 72.9411 89.7009C73.0591 89.725 73.1231 90.3722 73.2612 90.6496C73.3932 91.948 73.0591 90.6275 72.9751 90.9289L72.9951 91.9198C73.0351 91.8193 73.1872 92.3158 73.1712 91.6706C73.3412 91.9701 73.4593 92.5952 73.3292 93.1057C73.4093 93.2223 73.3953 92.8504 73.4013 92.7359C73.4793 92.8504 73.7674 93.4755 73.8114 92.6655C73.7994 92.8967 73.6814 92.2716 73.5893 92.6897C73.5573 92.3661 73.6734 91.4857 73.8234 91.8334C73.7774 91.4395 73.6654 90.6978 73.6333 90.3742C73.7574 90.2818 73.6854 90.6516 73.7454 90.8144L73.6734 89.6768L73.5373 90.0024C73.6354 89.1683 73.3092 88.6376 73.2092 87.9663C73.4253 88.0588 73.4453 88.6155 73.5553 89.0537C73.8154 88.6336 73.4193 88.7763 73.4573 88.0809C73.4973 87.9884 73.5493 87.9643 73.6133 88.0085L73.4233 87.4538C73.4493 87.291 73.4953 87.3834 73.5073 87.4538C73.2712 86.5031 73.2012 87.4779 73.1031 86.2036C72.9931 86.9714 73.2532 86.8548 73.2332 87.5C73.0771 87.8739 72.9531 86.7604 72.863 86.5755C72.9151 85.9504 73.2392 85.88 73.0631 85.0921C73.1672 85.6469 73.2652 85.1142 73.2732 85.9021C73.3833 86.3423 73.3712 85.669 73.4953 85.5785C73.4553 85.3715 73.2672 85.7172 73.2992 85.1384L73.3312 85.1605L73.0971 84.2118C73.2132 83.3294 72.835 82.22 73.0891 81.617L72.861 81.7577C72.841 81.2029 72.835 80.415 72.789 80.0211C72.9191 80.1115 72.9331 80.4834 72.9791 80.8773C73.0191 79.8804 72.8811 79.0001 72.699 78.3307C72.5369 78.8192 72.5489 78.8895 72.4389 79.3518C72.1188 78.7046 72.6349 78.586 72.4769 77.7499C72.699 77.7278 72.667 78.0051 72.8811 77.7961C72.731 77.4484 72.763 76.8695 72.6329 76.4756C72.849 76.2666 73.0311 76.6344 73.0511 77.4926C72.861 78.1418 73.1952 78.8594 73.0131 79.394L73.1512 79.0684C73.2172 79.7176 73.1772 80.1115 73.2812 80.6663L73.2492 80.6442L73.4713 80.9215V80.6221C73.5953 80.8291 73.7974 81.4542 73.8034 81.6391C73.7694 80.7105 73.4193 80.6442 73.2232 80.204C73.2372 79.3699 73.6273 79.0423 73.4373 78.4875C73.5433 78.4413 73.6534 77.977 73.7494 78.3488C73.8094 78.8111 73.6714 79.1367 73.8214 79.181C73.8154 78.6945 73.9055 78.8795 73.8794 78.1378C73.6834 77.9971 73.4933 77.4444 73.3372 76.9138C73.2332 76.357 73.2392 75.6375 73.2992 75.1953C73.3192 75.752 73.5073 76.3068 73.6514 76.1681C73.4493 75.8445 73.8134 75.0787 73.5333 75.2435C73.5513 74.5943 73.5453 73.5049 73.7874 73.4346C73.8774 74.0476 73.7294 74.6425 73.7814 75.1611C73.7874 75.0184 73.8474 74.8777 73.9055 74.9621L73.8794 75.7279C73.9975 75.149 74.0755 75.2636 74.0495 74.5219C74.0295 74.5682 73.9915 74.6626 73.9795 74.5923C73.9735 74.4074 73.9855 74.1762 73.9795 73.9893L74.2016 73.9672C74.0975 73.4125 74.3777 72.3432 74.2136 71.3262L74.2596 71.4166C74.3056 70.6066 73.8674 70.5383 73.8154 69.6579C73.9195 69.9132 74.0115 69.7966 74.1155 69.7504C74.0035 69.3102 74.1876 69.0771 74.2456 68.6369C74.1155 69.1474 74.0115 68.2912 73.9395 68.663C73.7174 68.6871 73.7174 67.7827 73.7434 67.3184C74.0295 67.041 73.9015 68.7555 74.1936 68.058C74.2196 67.5957 74.0575 67.4792 74.0055 67.8048C74.0375 67.2259 74.0695 66.3436 74.2456 65.9255C74.0295 65.2321 74.1476 64.9547 73.8674 64.5145C73.8794 64.8844 74.0835 64.9065 73.9715 65.3728L73.7634 64.8643C73.7494 64.1929 73.9315 63.6583 73.9575 63.196L74.0495 63.6824L74.0155 63.6583C74.1075 63.8432 74.0555 64.4703 74.2116 64.4C74.0155 63.9598 74.2056 63.6121 74.0675 63.0332L74.0995 63.0553C73.9355 62.0363 74.4177 61.2926 74.0135 60.6454C74.0195 60.8303 73.8634 61.2022 73.7854 61.0876C73.8835 60.8545 73.8494 60.2294 73.9675 60.2515L74.0075 60.4605C74.0395 59.8817 74.0595 59.5339 74.0195 59.3229C73.8755 59.1621 73.7654 59.3269 73.6874 58.9089C73.7774 57.8878 74.0195 59.3229 74.1436 58.6295L73.9935 57.6788L74.1235 57.4697C74.2536 56.0568 73.8214 54.9694 73.8214 53.464C74.0435 53.4398 74.1356 54.5292 74.1496 54.8991C74.3456 54.4348 74.0775 53.7655 74.2136 53.1384C74.2456 52.5575 74.0495 52.1193 73.9255 52.2118C73.8474 51.4942 74.0555 51.7013 74.0935 51.6108C73.8534 51.3777 73.9375 50.4752 73.8854 49.8964L74.0215 49.8702L73.8534 48.9678C73.8394 49.1989 73.7174 48.9919 73.6314 48.9919L73.6434 48.7607C73.2712 49.6431 73.9035 50.7526 73.4813 51.657C73.4293 51.3797 73.3572 51.7515 73.3052 51.4721C73.3192 51.241 73.3372 51.1948 73.3913 51.1706C73.2812 51.032 73.1812 50.6621 73.1892 51.1485C72.9031 51.1264 72.9731 50.1516 72.875 49.4823C73.0571 48.9477 73.1492 50.037 73.2872 50.3144C73.2672 50.0592 73.1432 49.8501 73.2152 49.4803L73.4293 49.5707C73.3112 48.6462 73.2412 49.3175 73.0331 49.1085C72.759 48.8572 73.0451 48.2743 73.0251 48.0211L73.0771 48.2985C73.1692 47.5809 72.9391 47.4181 72.9591 46.7709L73.1292 46.4674C72.9131 47.2814 73.4293 47.4623 73.3192 47.9266C73.5213 46.7448 73.7614 48.1799 73.9455 48.5497C73.9055 48.0392 73.9315 47.5769 74.0495 47.2995C73.7694 46.5579 74.1536 45.7459 73.8194 45.0303C73.8574 44.6364 73.9695 45.376 73.9755 44.96C74.0015 44.1962 73.9615 43.3842 73.8374 42.5742C73.8434 42.1561 73.9415 42.2265 74.0315 42.1099C74.1616 40.094 73.6454 39.3081 73.7694 37.1052L73.8875 37.4288C73.9135 36.9665 73.9535 36.5726 73.7954 36.3414C74.1676 35.7585 73.5673 34.3717 73.9635 33.63C74.0355 32.6552 73.7154 32.611 73.6554 31.8452C73.7394 31.8452 73.8975 32.0784 73.9355 31.6824C73.8694 30.4322 73.8294 29.2444 73.7994 28.0244C73.7854 27.4153 73.7714 26.7963 73.7554 26.1591C73.7494 25.8396 73.7414 25.516 73.7334 25.1863C73.7254 24.6537 73.7174 24.111 73.7094 23.5543C73.7414 23.5824 73.7674 23.8196 73.7814 23.9402C73.7914 22.9413 73.7634 21.9584 73.7234 21.0439C72.661 21.0921 71.6206 21.1384 70.6201 21.1826C70.222 21.1946 69.8318 21.2067 69.4517 21.2188C69.1836 21.2228 68.9215 21.2167 68.6674 21.1966C68.3893 21.2489 67.5609 21.3213 67.815 21.472C68.1592 21.4921 68.2072 21.681 68.1852 21.7996C66.8707 21.9644 67.5389 21.5263 66.6626 21.5785C66.3845 21.2911 67.2148 21.3876 67.2148 21.1323L65.9463 21.3152C65.232 21.2248 64.5157 21.3876 63.8935 21.2509C64.1716 21.2831 63.9835 21.0359 64.4457 21.1464C64.3757 21.1585 64.4217 21.1786 64.3537 21.1926C65.4161 21.2167 64.9319 21.0539 65.8783 20.9896C65.0459 21.062 63.9175 21.1343 63.1792 21.0761C63.3413 21.271 62.581 21.1605 62.3729 21.2851L62.3269 21.265C62.3269 21.3494 61.8687 21.4097 61.7266 21.4358L61.5425 21.1866C61.2184 21.2188 61.6346 21.3112 61.3124 21.3434C60.8543 21.4017 59.2136 21.4298 59.0976 21.1685C58.5433 21.1886 58.3813 21.3333 57.8071 21.2992C57.8531 21.2328 57.9911 21.2087 58.0111 21.1745C56.7906 21.1223 55.2901 21.2067 54.1356 21.058C53.1932 21.1243 52.3849 21.1625 51.7867 21.3333C52.0408 21.3132 52.7791 21.3715 52.3169 21.5162C52.0628 21.6207 51.6726 21.5826 51.2805 21.6268C51.3725 21.4961 50.2881 21.5042 51.0704 21.4117C50.8723 21.1263 49.3797 21.468 49.3917 21.1846C49.2076 21.271 48.0952 21.2208 47.677 21.3735C47.585 21.2489 48.2793 21.2871 48.2773 21.2027L47.7711 21.2429V21.1585C46.8007 21.0861 46.6186 21.4338 46.0424 21.4861L46.0644 21.4539L45.6722 21.5001L46.1324 21.271C45.5102 21.3052 45.188 21.5082 44.4958 21.5544L44.4257 21.4821L44.0096 21.5604C44.0796 21.5464 44.1036 21.5142 44.0576 21.4941C43.6654 21.7112 42.7651 21.6268 42.3969 21.8097C42.1208 21.7775 41.8867 21.5082 41.5186 21.6931L41.5886 21.4258C42.511 21.3936 41.9327 21.6147 42.9031 21.5162C42.1868 21.1705 40.18 21.2107 38.8415 21.2348C37.7591 21.4117 35.9804 21.1263 35.5202 21.5243L35.6342 21.3615L33.8135 21.2248C32.2669 21.2911 30.6763 21.1665 29.4998 21.3896L29.1757 21.2529C27.9572 21.7112 25.024 21.4439 24.2197 21.9946C23.5294 21.872 24.4278 21.7856 24.4958 21.6871C23.9876 21.6428 23.1353 22.0026 22.6491 21.7534C22.6491 21.669 23.3633 21.675 23.0412 21.6228C22.6731 21.466 22.513 21.7795 22.0948 21.6027C22.2789 21.7655 21.4266 21.9564 20.8063 21.9886C20.8824 21.9926 20.937 22.0013 20.9704 22.0147C21.0604 22.1393 20.5982 22.1132 20.3441 22.1333C20.3441 22.1333 20.3682 22.1011 20.4362 22.087C17.2329 22.2981 13.5654 22.3966 10.1981 22.2418L10.8184 22.1232C10.3342 22.2137 9.47982 22.1494 9.20371 22.1172L9.27374 22.1051C8.37338 21.8499 8.25934 22.3544 7.56506 22.0589L7.70111 22.0328C6.61668 22.0408 5.97242 21.7655 4.912 21.9102C4.07967 21.8117 4.17171 21.681 3.59348 21.5645C3.10929 21.5705 2.88119 21.7293 2.85719 21.7614L3.08928 21.7755C3.34338 21.9262 2.58108 21.9001 2.23694 21.9644C2.49104 22.1996 2.35298 22.5674 3.32537 22.8086C4.03966 22.7302 4.01965 23.1885 4.82597 23.1483C5.28615 22.8347 5.98043 23.3834 6.71672 23.1021C6.32456 23.3171 7.59307 23.2186 6.95081 23.4558C7.25093 23.6266 8.51744 23.2709 9.09567 23.4739C9.00163 23.5201 9.02364 23.5724 8.88758 23.5985C9.69591 23.4739 9.4418 23.7493 10.042 23.7493L10.02 23.5261C10.2521 23.4538 10.3202 23.6106 10.5282 23.5724C10.3642 23.5462 10.02 23.4417 10.2021 23.3493C10.4782 23.297 10.7103 23.2247 11.0084 23.2247C11.0124 23.3091 10.8043 23.3493 10.6623 23.3754C10.6623 23.3754 11.3105 23.3955 11.3566 23.5C11.1245 23.5724 10.8264 23.5724 10.6203 23.697C11.4726 23.7613 10.6883 23.7693 11.1045 23.9442C10.9884 23.6829 11.8428 23.8337 12.3029 23.7734C12.351 23.8779 11.9808 23.8055 11.8648 23.8859C12.7431 24.3442 13.1793 23.8075 14.3097 23.904C14.2877 23.9362 14.1477 23.9623 14.0777 23.9764C14.6099 23.904 14.98 24.1472 15.3241 23.9945C15.8323 24.0407 15.4162 24.2899 16.2025 24.2819C15.9724 24.0146 17.1249 24.3341 17.1469 24.0467L17.7491 24.2156C18.2813 24.0588 17.6071 23.7312 18.6455 23.705C19.5918 23.8095 18.5554 24.1774 19.1077 24.3261L19.3397 24.1693L19.8019 24.2799L19.7319 24.2939C20.01 24.2417 20.5142 24.2879 20.5162 24.3723C20.4702 24.4387 20.1701 24.4387 20.1261 24.503C20.5842 24.3583 21.9468 24.8949 22.431 24.4628C22.7031 24.5391 23.2633 24.5371 23.1913 24.6738C23.4394 24.4829 24.4198 24.7341 24.7859 24.6115C24.7379 24.6778 25.086 24.7824 25.3621 24.7301C24.992 24.6577 25.2241 24.5854 25.4742 24.4809C25.8003 24.6195 26.7207 24.501 26.8607 24.7301C27.3689 24.6055 27.1829 24.4427 27.2949 24.2779C27.621 24.4145 28.6595 24.3884 28.4754 24.6497C28.1973 24.6175 27.573 24.5653 27.6911 24.7422C28.2213 24.8386 27.9212 24.6698 28.3573 24.6437C28.3253 24.6919 28.6555 24.8045 28.5714 24.8808C28.8295 24.8527 29.1917 24.8547 29.5598 24.8989C28.9836 24.7803 29.928 24.716 29.5818 24.6115L29.0296 24.8025C28.3593 24.8145 28.8895 24.6577 28.6354 24.5934C29.8119 24.5412 29.5798 24.2718 30.6863 24.1472C30.8943 24.1934 31.2625 24.2638 31.3785 24.2718C31.0104 24.2859 31.0804 24.5271 31.2905 24.5733C31.9087 24.3703 32.3969 24.704 32.9051 24.7502C32.465 24.6919 32.6971 24.5351 32.8571 24.4748C33.9175 24.3301 33.2733 24.5653 33.7355 24.6778C35.3701 24.6517 36.4105 24.9653 37.7231 24.8004L37.1008 24.5773L36.8947 24.7864C36.4105 24.6236 36.9848 24.314 37.2609 24.1774C37.3309 24.2497 38.1392 24.2095 37.8171 24.3281L38.6014 24.2357C38.4854 24.1432 37.9772 24.1834 38.3433 24.0849C38.6014 24.1512 39.4057 24.1955 38.8995 24.3201C39.3137 24.3261 39.8439 24.2537 39.7519 24.1291C40.4201 24.1171 39.6818 24.3985 39.3837 24.4829C39.9139 24.4949 39.8439 24.6778 39.6858 24.7381L40.4221 24.712C40.2621 24.7703 40.2621 24.8547 40.102 24.915C40.5862 24.9934 40.9323 24.7582 41.3465 24.9351L41.5306 24.7582C42.8671 24.9029 42.7311 24.9291 43.9775 24.9472L43.7695 24.8165C44.7138 24.5814 44.4617 25.0256 45.7302 24.9271C46.4445 24.8487 46.9067 24.7884 46.8127 24.5793C47.2268 24.501 47.3209 24.6256 47.507 24.704C47.8291 24.5854 48.5194 24.3703 49.0276 24.501C48.6814 24.5653 48.4053 24.6195 48.0832 24.6517C48.1772 24.8607 49.1896 24.6959 49.7198 24.7944C50.09 24.6959 51.2885 24.4407 51.9567 24.2558C51.6546 24.0849 51.7706 23.8357 52.3689 23.6668C52.2768 23.7975 53.1772 23.7975 53.5914 23.8899C53.3873 24.0146 54.5157 24.1955 53.6414 24.2497C53.3873 24.1854 53.2712 24.0065 52.9251 24.0728C53.1332 24.2035 53.6894 24.3542 54.2656 24.4728C54.2216 24.5392 53.9195 24.6236 53.6214 24.6236C53.7855 24.5653 53.6894 24.5251 53.6674 24.4728L53.6634 24.4708Z" fill="#495E57"/>
	<path d="M72.9171 88.1331C72.9191 88.101 72.9231 88.0708 72.9251 88.0386L72.8771 88.1552C72.8931 88.117 72.9071 88.117 72.9171 88.1331Z" fill="#495E57"/>
	<path d="M70.158 24.5492C70.174 24.5412 70.218 24.511 70.242 24.4829C70.214 24.501 70.186 24.5191 70.158 24.5492Z" fill="#495E57"/>
	<path d="M70.3741 35.0108C70.3921 34.9968 70.4101 34.9948 70.4281 34.9887C70.4161 34.9787 70.3981 34.9807 70.3741 35.0108Z" fill="#495E57"/>
	<path d="M71.4425 88.9492L71.4005 88.7241C71.4005 88.8065 71.4225 88.8447 71.4425 88.9492Z" fill="#495E57"/>
	<path d="M1.25648 35.2159L1.26448 35.5696C1.27848 35.5375 1.27848 35.439 1.25648 35.2159Z" fill="#495E57"/>
	<path d="M1.44466 34.897C1.44466 34.897 1.44466 34.8744 1.44672 34.8662C1.4385 34.8703 1.4385 34.8806 1.44466 34.897Z" fill="#495E57"/>
	<path d="M45.6862 102.615C45.8162 102.601 45.9282 102.58 45.9903 102.55C45.8022 102.562 45.7162 102.587 45.6862 102.615Z" fill="#495E57"/>
	<path d="M24.8579 106.363C24.8659 106.343 24.8719 106.325 24.8719 106.309C24.8419 106.323 24.8319 106.339 24.8579 106.363Z" fill="#495E57"/>
	<path d="M1.34251 39.3624C1.34651 39.3081 1.35251 39.2518 1.35652 39.2016C1.3105 39.1694 1.3145 39.3222 1.34251 39.3624Z" fill="#495E57"/>
	<path d="M51.0663 102.822C51.0843 102.808 51.1003 102.792 51.1083 102.771C51.0843 102.792 51.0743 102.808 51.0663 102.822Z" fill="#495E57"/>
	<path d="M0.46216 52.1796C0.472164 52.2279 0.476166 52.2801 0.482168 52.3304C0.482168 52.2761 0.478166 52.2239 0.46216 52.1796Z" fill="#495E57"/>
	<path d="M20.6622 102.5C20.5882 102.52 20.5482 102.542 20.5261 102.562C20.6082 102.55 20.6682 102.53 20.6622 102.5Z" fill="#495E57"/>
	<path d="M20.5962 103.025C21.6566 102.874 20.3701 102.723 20.5261 102.562C20.244 102.605 19.6398 102.576 19.9259 102.697C19.3697 102.375 18.2452 102.874 17.643 102.619C17.617 102.651 17.9651 102.755 17.549 102.836C16.9267 102.868 16.9727 102.717 16.7186 102.653C16.5346 102.745 15.5902 102.81 15.6802 102.765C15.2661 102.844 16.1204 103.079 15.5442 103.218C15.154 103.433 14.6218 103.25 14.1616 103.31C13.6074 103.159 14.7138 103.206 14.9439 103.133L13.3773 103.232C12.9171 103.121 13.5834 103.023 14.0456 103.047C13.4213 102.91 12.615 103.035 12.4309 103.212C12.0388 103.173 11.8307 103.212 11.4625 103.139C11.8307 103.041 11.8067 102.733 12.3829 102.681C13.3293 102.701 12.0388 102.916 12.8451 102.962L12.9151 102.777C13.2613 102.882 13.5354 102.745 13.9055 102.731C14.1116 102.777 13.8595 102.798 13.7214 102.824C14.3917 102.81 14.9239 102.908 15.4281 102.699C14.5258 102.53 13.1672 102.759 12.7731 102.548L10.9763 102.804C10.9763 102.888 11.6006 103.027 11.0924 103.151C10.8843 102.936 10.3541 102.838 9.65982 102.8C9.91592 103.035 8.55338 103.011 8.90152 103.2C9.22365 103.081 9.38571 103.278 9.43173 103.298C8.76146 103.312 9.34169 103.515 8.97355 103.527C7.75106 103.475 9.01957 103.376 7.81909 103.292C8.07319 103.187 8.71945 102.95 9.38571 102.852C9.33969 102.747 8.71945 102.866 8.43933 102.747C8.83349 102.872 8.16322 102.97 8.48735 103.023C7.51697 103.121 6.38852 103.364 5.21205 103.417C5.39612 103.069 7.19484 103.153 6.82269 102.741C6.24646 102.794 6.24846 102.964 5.78628 102.938C5.5902 102.834 5.25006 102.828 4.86191 102.848C4.76387 102.854 4.66383 102.86 4.56179 102.868L4.48576 102.874C4.46175 102.874 4.47176 102.878 4.46375 102.88L4.43574 102.892C4.39773 102.906 4.35571 102.92 4.31769 102.92C4.3257 102.954 4.3417 102.991 4.35971 103.025C4.26567 103.111 4.13562 103.045 4.0776 103.025L4.13162 102.978C4.0916 103.001 4.04759 103.023 4.00157 103.045C3.99557 103.037 4.00157 103.025 4.01557 103.013C3.98556 103.031 3.95555 103.043 3.92354 103.051C3.90353 103.015 3.90953 102.93 3.91353 102.846C3.91753 102.761 3.92154 102.679 3.89553 102.607C3.81149 102.621 3.80949 102.677 3.8255 102.735C3.84351 102.796 3.87752 102.846 3.86952 102.898C3.84951 102.924 3.8215 102.997 3.78548 103.071C3.74747 103.143 3.70145 103.222 3.64343 103.214C3.64343 103.049 3.59141 102.94 3.54139 102.788C3.51738 102.713 3.49137 102.629 3.47336 102.532C3.47136 102.518 3.46936 102.512 3.46736 102.49L3.46135 102.408C3.45735 102.351 3.45535 102.295 3.45135 102.237C3.44735 102.12 3.44335 102 3.44535 101.871L3.39333 102.195C3.27528 101.871 3.3333 101.431 3.3273 100.944C3.44335 100.062 3.56339 101.592 3.66143 101.057C3.81149 101.403 3.64143 102.008 3.85751 102.098L4.0916 101.543C3.94755 101.079 4.16163 100.569 4.12962 100.243L4.02558 100.593C3.84351 100.524 3.97956 100.201 4.00557 100.036L3.73946 100.271C3.69345 100.78 3.92754 101.127 3.77348 101.497C3.68744 100.595 3.47336 100.804 3.46736 99.7143C3.5714 99.6661 3.50537 99.9234 3.5834 100.036C3.65543 99.6641 3.43934 99.2742 3.52538 98.6712C3.59141 99.0169 3.69545 99.5737 3.8395 99.1315L3.63742 98.8079C3.66944 98.5305 3.74747 98.6431 3.75347 98.5305C3.79148 98.1346 3.54539 98.6209 3.59741 97.9959C3.63742 97.9034 3.68144 97.6964 3.72746 97.7868C3.73546 97.0693 3.66143 97.4411 3.56339 96.7698C3.56339 97.3708 3.25727 97.3929 3.22526 96.7698C3.25727 95.8895 3.0872 95.2885 3.34131 94.6835L3.21125 94.2896C3.40133 94.5428 3.27728 93.7328 3.30929 93.4534C3.51738 93.361 3.30329 94.774 3.64143 94.774C3.67344 94.1951 3.77748 94.4483 3.86952 94.6333C3.8375 94.0062 3.62942 94.4021 3.49137 94.1247C3.5754 94.1247 3.51738 93.0575 3.69945 93.4273C3.71145 92.8947 3.49737 92.8022 3.53538 92.4103C3.61942 92.4706 3.72546 92.5369 3.8335 92.5007C3.76347 92.4545 3.84951 91.95 3.85551 91.8535C3.81549 91.946 3.67944 91.6686 3.73746 92.1309C3.5754 92.0163 3.73146 91.0415 3.59341 91.0677C3.78148 91.0194 3.63142 90.0707 3.70945 89.5843C3.26528 89.6326 3.87952 90.4868 3.51337 90.6496C3.36331 90.0024 3.49937 88.4708 3.30329 87.4297C3.38732 86.5272 3.47336 87.4297 3.63542 87.2448C3.70745 88.0769 3.5774 88.2859 3.65543 89.0055C3.73146 88.2176 3.68744 86.9192 3.54939 86.3423C3.52938 85.4841 3.99156 85.3896 3.88152 84.3465C3.73946 84.4851 3.70545 84.463 3.65343 84.7887C3.60141 84.5113 3.65343 84.1857 3.65343 83.8842C3.56339 83.6993 3.54339 84.3485 3.46535 83.9324C3.49137 83.7696 3.51137 83.4219 3.60941 83.4902L3.62342 83.5606C3.49337 82.5657 3.96956 82.841 3.69545 81.9848C3.62342 82.0531 3.71545 82.2401 3.66944 82.4491C3.55939 82.6099 3.40333 82.0793 3.35731 81.6833C3.45535 81.7537 3.37732 81.3356 3.40933 81.0582C3.5734 80.8713 3.45535 81.7537 3.56539 81.8924L3.59141 81.1266L3.56539 81.2874L3.40933 80.4553C3.46135 81.0361 3.20725 80.7346 3.18724 80.4794C3.21926 79.9005 3.25127 79.3217 3.43534 79.39C3.25327 79.3196 3.25927 78.6021 3.21926 78.0936C3.15323 78.6503 3.0632 78.1639 3.00317 78.0031L3.18524 77.169C3.23726 78.0494 3.34931 76.9841 3.47336 77.1911C3.66343 77.4444 3.56539 77.979 3.53938 78.4433C3.87752 77.5368 3.35731 77.169 3.51738 76.3811C3.60141 76.3811 3.69945 76.4515 3.68144 76.7972C3.73946 76.6585 3.51738 76.0797 3.61541 75.545C3.55739 75.6857 3.38732 75.9872 3.3153 75.4546L3.52338 74.7571C3.5694 73.9451 3.30129 74.4798 3.20325 73.8104L3.05919 74.2506C2.87512 74.1823 3.05919 73.3482 2.85711 73.3261C2.85111 73.7421 3.00717 73.9753 2.94915 74.4134C2.75307 74.5782 2.84511 73.8587 2.73907 73.6074C2.8231 72.703 2.8311 72.8879 2.98716 72.2146C3.29329 72.1905 3.36531 73.326 3.76347 73.1833C3.71145 72.303 3.61341 71.0287 3.72946 70.4519C3.63742 69.664 3.39733 69.7343 3.22126 69.8509C3.18925 69.5253 3.21526 69.3645 3.25927 69.1555L3.35731 69.5253C3.25927 68.5525 3.15323 67.9977 3.16123 66.9767C3.10921 66.3999 2.92514 66.633 2.78308 66.7717L2.74907 66.1466L2.71105 66.2411C2.51498 66.1024 2.581 65.5456 2.58701 65.1296C2.67104 65.1296 2.69105 65.3828 2.74307 65.3587C2.8151 64.9889 2.79509 64.4321 2.70905 64.1327C2.79309 64.1327 2.98316 64.3859 2.92514 64.8261C2.90513 64.8723 2.87312 64.8502 2.85311 64.8964L2.96516 65.6381C2.86111 64.7819 3.0752 64.2693 3.27728 64.2914C3.17324 63.4352 3.0692 64.9889 2.99117 63.9699C3.38732 62.6252 2.87912 61.4213 3.44535 60.6776C3.3273 60.0545 3.13122 59.3129 3.11922 58.3401C2.94915 58.3401 3.05319 57.6909 2.84511 57.7853C2.62502 58.7139 3.17124 59.5219 2.85911 60.2656C2.93714 60.6816 3.0812 60.5409 3.17124 60.7279C3.18524 61.0957 3.16524 61.4454 3.06119 61.4936C2.95715 60.6374 2.65103 61.2625 2.64303 60.1751C2.49897 60.3138 2.55099 61.1962 2.51298 61.5881C2.43495 61.4735 2.34291 61.5901 2.27888 61.8454C2.14283 61.566 2.02478 60.9429 1.90673 60.6193C1.98477 60.7339 2.03078 60.5249 2.0768 60.6193L1.83471 59.4837C1.93875 59.136 2.0628 59.0415 2.15483 59.2284C2.20685 58.6014 1.97876 57.5381 2.23286 57.5361C2.19285 56.7261 2.0828 57.7934 2.01078 57.8617L1.99877 57.7914L2.01878 58.6476C1.72466 58.742 2.09081 57.6728 1.8087 57.5361C1.27448 57.4014 1.97876 56.3281 1.89273 55.7292L2.27688 56.4226L2.19285 55.8196C2.34291 56.1673 2.59701 56.1653 2.75307 56.6959C2.76508 55.8638 2.88312 54.68 2.81109 54.1454C2.94115 53.9363 3.0652 53.8459 3.19525 53.9363C2.95315 53.1022 3.3193 52.6379 3.3253 51.9184C3.18124 51.1566 3.12922 52.6841 2.94115 52.1294C3.03919 51.8983 2.96115 51.4802 2.92114 51.2732C2.99317 51.5043 2.86312 52.3163 2.79709 52.8731C2.80309 52.455 2.61502 52.5012 2.53699 52.3867L2.49697 53.0841C2.26288 53.0379 2.47896 52.2279 2.36092 51.9043C2.569 52.1093 2.577 51.9967 2.78508 52.2018C2.70105 51.5988 2.70105 50.6963 2.8291 50.1858C2.91314 49.8843 2.93314 50.439 2.99317 50.6019C3.13722 50.4632 2.90713 50.0009 3.0852 49.8843C3.21526 49.9768 3.09721 50.2541 3.13722 50.4632L3.20125 48.7025C3.28528 48.7025 3.31129 49.1427 3.27928 49.42C3.37732 48.8854 3.3313 48.4934 3.04319 47.8684C3.12722 47.2654 3.25127 46.572 3.37532 46.777C3.3233 46.4996 3.24527 46.6845 3.15923 46.6865C3.20525 45.8745 2.90513 45.7841 2.89913 45.2977L2.74307 45.6675C2.90513 44.8816 2.48296 45.4846 2.60701 44.7892C2.76908 44.9017 2.95915 44.8575 3.13522 44.7409C2.97316 44.6264 3.11522 44.1842 3.11522 43.8847C2.95115 44.0716 2.96516 43.2375 2.80309 43.7239C2.67104 43.0285 2.89313 42.7049 2.68504 42.1943C2.63302 42.5179 2.51498 41.5934 2.39893 41.8728C2.38693 41.1994 2.581 40.7351 2.75707 40.9201C2.74307 41.1532 2.67304 41.525 2.80909 41.4989L2.77708 40.2729C2.86111 39.9694 2.89913 39.5774 3.08921 39.5292C2.87312 39.1372 3.23927 38.3715 2.98516 38.07C3.14923 38.486 2.92714 38.8136 2.90113 38.9724L2.86512 38.7815C2.86512 38.8096 2.86111 38.8398 2.85511 38.88L2.52898 38.3494C2.39893 38.8579 2.74307 38.4398 2.73707 39.1594C2.43094 39.7844 2.27488 37.7464 2.08481 38.3956C1.98677 38.9282 2.28088 38.8337 2.39093 39.2739L2.39693 39.1594L2.52698 40.1563C2.42294 40.2025 2.33691 39.901 2.33691 39.901C2.33691 41.107 2.17484 41.2939 2.13683 42.5903C2.17684 42.4958 2.49497 42.2426 2.54899 42.8214C2.62702 43.2375 2.43895 43.2857 2.41894 43.6314C2.38092 43.4244 2.20285 43.2395 2.3209 42.9621L2.09881 42.9842C1.8307 42.0134 1.61662 42.522 1.53659 41.2014C1.37452 41.1411 1.29049 40.1844 1.33651 39.4669L1.19045 39.8146C0.910338 39.0749 1.41854 39.6739 1.18445 38.7252C1.47856 38.3313 1.8227 37.6097 2.0648 38.1423C2.13483 37.469 1.97876 37.2399 1.97876 36.6349C2.21886 36.2651 2.23887 36.8198 2.48096 36.7495C2.45495 36.3073 2.35091 35.7525 2.21286 36.0802L2.30889 35.244C2.36092 35.2219 2.36092 35.5214 2.35491 35.638C2.40693 35.3124 2.28889 34.6873 2.19885 34.5044C2.21086 34.5727 2.25087 34.7838 2.21086 34.8742C2.14683 34.5265 2.02878 33.9014 1.96276 33.8572C2.08681 34.3657 1.8127 34.4119 1.96876 34.9445C1.90473 34.8983 1.77268 34.8079 1.80469 34.5285C1.66064 34.9687 1.68665 35.4088 1.52458 35.5938C1.64663 35.2219 1.47056 34.9847 1.44455 34.9064C1.39853 35.24 1.44455 35.9033 1.51258 36.1264C1.23847 36.1746 1.5586 37.4228 1.27848 36.9846C1.37652 37.055 1.38253 37.5414 1.3185 37.7966C1.20045 37.7725 1.13643 37.1253 0.998373 36.8479C0.866321 35.5495 1.20045 36.8701 1.28449 36.5686L1.26448 35.5777C1.22446 35.6782 1.0744 35.1817 1.08841 35.8269C0.918341 35.5274 0.800295 34.9023 0.930346 34.3918C0.850314 34.2752 0.86432 34.6471 0.858318 34.7616C0.780286 34.6471 0.492172 34.022 0.448154 34.832C0.460159 34.6009 0.578206 35.2259 0.670243 34.8079C0.702255 35.1315 0.586209 36.0118 0.43615 35.6641C0.482168 36.058 0.594213 36.7997 0.626225 37.1233C0.502176 37.2158 0.574205 36.8459 0.514181 36.6831L0.586209 37.8207L0.722263 37.4951C0.624224 38.3293 0.950354 38.8599 1.05039 39.5312C0.834308 39.4387 0.8143 38.882 0.704256 38.4438C0.444153 38.8639 0.84031 38.7212 0.802295 39.4166C0.762279 39.5091 0.710259 39.5332 0.646233 39.489L0.836309 40.0437C0.810298 40.2065 0.76428 40.1141 0.752275 40.0437C0.988369 40.9944 1.0584 40.0196 1.15644 41.2939C1.26648 40.5261 1.00638 40.6427 1.02638 39.9975C1.18245 39.6237 1.3065 40.7371 1.39653 40.9221C1.34451 41.5471 1.02038 41.6175 1.19645 42.4054C1.09241 41.8506 0.994372 42.3833 0.986368 41.5954C0.876325 41.1552 0.88833 41.8285 0.76428 41.919C0.804296 42.126 0.992371 41.7803 0.960358 42.3592L0.928345 42.337L1.16244 43.2857C1.04639 44.1681 1.42454 45.2776 1.17044 45.8805L1.39853 45.7399C1.41854 46.2946 1.42454 47.0825 1.47056 47.4764C1.34051 47.386 1.3265 47.0141 1.28049 46.6202C1.24047 47.6171 1.37852 48.4975 1.5606 49.1668C1.72266 48.6784 1.71066 48.608 1.8207 48.1457C2.14083 48.7929 1.62462 48.9115 1.78269 49.7476C1.5606 49.7697 1.59261 49.4924 1.37852 49.7014C1.52858 50.0491 1.49657 50.628 1.62662 51.0219C1.41054 51.231 1.22846 50.8631 1.20846 50.0049C1.39853 49.3557 1.0644 48.6382 1.24647 48.1035L1.10842 48.4291C1.04239 47.7799 1.08241 47.386 0.978365 46.8312L1.01038 46.8533L0.78829 46.576V46.8755C0.66424 46.6684 0.46216 46.0433 0.456158 45.8584C0.490171 46.787 0.84031 46.8533 1.03639 47.2935C1.02238 48.1276 0.632228 48.4553 0.822303 49.01C0.716261 49.0562 0.606217 49.5205 0.510179 49.1487C0.450155 48.6864 0.58821 48.3608 0.43815 48.3166C0.444153 48.803 0.354117 48.6181 0.380127 49.3597C0.576205 49.5004 0.766281 50.0531 0.922343 50.5838C1.02638 51.1405 1.02038 51.8601 0.960358 52.3022C0.94035 51.7455 0.752275 51.1908 0.608218 51.3294C0.810299 51.653 0.446154 52.4188 0.726265 52.254C0.708258 52.9032 0.71426 53.9926 0.472164 54.0629C0.382128 53.4499 0.530187 52.855 0.478166 52.3364C0.472164 52.4791 0.41214 52.6198 0.354117 52.5354L0.380127 51.7696C0.26208 52.3485 0.184049 52.2339 0.21006 52.9756C0.230068 52.9293 0.268083 52.8349 0.280088 52.9052C0.28609 53.0901 0.274085 53.3213 0.280088 53.5082L0.0579991 53.5303C0.162041 54.0851 -0.118071 55.1543 0.0459944 56.1714L-2.3948e-05 56.0809C-0.0460423 56.8909 0.392132 56.9592 0.444153 57.8396C0.340111 57.5843 0.248075 57.7009 0.144033 57.7471C0.256078 58.1873 0.0720047 58.4205 0.0139816 58.8606C0.144033 58.3501 0.248075 59.2063 0.320103 58.8345C0.542192 58.8104 0.542192 59.7149 0.516181 60.1791C0.230068 60.4565 0.358119 58.742 0.0660023 59.4395C0.039992 59.9018 0.202056 60.0183 0.254077 59.6927C0.222064 60.2716 0.190052 61.154 0.0139816 61.572C0.230068 62.2654 0.112021 62.5428 0.392132 62.983C0.380127 62.6132 0.176046 62.5911 0.288091 62.1247L0.496174 62.6333C0.510179 63.3046 0.328107 63.8392 0.302096 64.3015L0.21006 63.8151L0.244073 63.8392C0.152037 63.6543 0.204057 63.0272 0.0479952 63.0975C0.244073 63.5377 0.0539976 63.8854 0.192052 64.4643L0.16004 64.4422C0.324105 65.4612 -0.158087 66.2049 0.246074 66.8521C0.240072 66.6672 0.396134 66.2953 0.474165 66.4099C0.376126 66.6431 0.410139 67.2681 0.292092 67.246L0.252076 67.037C0.220064 67.6159 0.200056 67.9636 0.240072 68.1746C0.384129 68.3354 0.494173 68.1706 0.574205 68.5887C0.484169 69.6097 0.240072 68.1746 0.118023 68.868L0.268083 69.8187L0.138031 70.0278C0.00797924 71.4407 0.440151 72.5281 0.440151 74.0335C0.218063 74.0577 0.126026 72.9683 0.112021 72.5985C-0.0840574 73.0628 0.184049 73.7321 0.0479952 74.3592C0.0159824 74.94 0.21206 75.3782 0.33611 75.2857C0.414141 76.0033 0.206058 75.7963 0.168043 75.8867C0.408138 76.1199 0.324105 77.0223 0.376126 77.6012L0.240072 77.6273L0.408138 78.5297C0.422144 78.2986 0.544193 78.5056 0.630227 78.5056L0.618222 78.7368C0.99037 77.8544 0.358119 76.7449 0.780287 75.8405C0.832307 76.1178 0.904336 75.746 0.956357 76.0254C0.942351 76.2565 0.924344 76.3028 0.870322 76.3269C0.980366 76.4656 1.08041 76.8354 1.0724 76.349C1.35852 76.3711 1.28849 77.3459 1.38653 78.0152C1.20446 78.5498 1.11242 77.4605 0.974364 77.1831C0.994372 77.4384 1.11842 77.6474 1.04639 78.0172L0.832307 77.9268C0.950354 78.8513 1.02038 78.18 1.22846 78.3891C1.50257 78.6403 1.21646 79.2232 1.23647 79.4764L1.18445 79.1991C1.09241 79.9166 1.3225 80.0794 1.30249 80.7266L1.13243 81.0301C1.34851 80.2161 0.832307 80.0352 0.942351 79.5709C0.740271 80.7527 0.500175 79.3176 0.316102 78.9478C0.356118 79.4583 0.330107 79.9206 0.21206 80.198C0.492172 80.9396 0.108019 81.7517 0.442152 82.4672C0.404137 82.8611 0.292092 82.1215 0.28609 82.5375C0.26008 83.3013 0.300095 84.1133 0.424145 84.9233C0.418142 85.3414 0.320103 85.271 0.230068 85.3876C0.100016 87.4036 0.616221 88.1915 0.492172 90.3923L0.374125 90.0687C0.348115 90.531 0.308099 90.9249 0.466162 91.1561C0.0940135 91.739 0.694252 93.1258 0.298095 93.8675C0.226066 94.8423 0.546193 94.8865 0.606217 95.6523C0.522184 95.6523 0.364121 95.4191 0.326106 95.8151C0.392132 97.0653 0.432148 98.2531 0.46216 99.4732C0.476166 100.082 0.490171 100.701 0.506177 101.338C0.51218 101.658 0.520183 101.982 0.528186 102.311C0.536189 102.844 0.544193 103.386 0.552196 103.943C0.520183 103.915 0.494173 103.678 0.480167 103.557C0.470163 104.556 0.498174 105.539 0.53819 106.454C1.60061 106.405 2.64103 106.359 3.64143 106.315C4.03958 106.303 4.42974 106.291 4.80989 106.279C5.078 106.275 5.3401 106.281 5.5942 106.301C5.87231 106.249 6.70064 106.176 6.44654 106.026C6.1024 106.005 6.05439 105.816 6.07639 105.698C7.39092 105.533 6.72265 105.971 7.599 105.919C7.87711 106.206 7.04678 106.11 7.04678 106.365L8.31528 106.182C9.02957 106.273 9.74585 106.11 10.3681 106.247C10.09 106.214 10.2781 106.462 9.81588 106.351C9.88591 106.339 9.83989 106.319 9.90792 106.305C8.8455 106.281 9.32969 106.444 8.38331 106.508C9.21564 106.436 10.3441 106.363 11.0824 106.421C10.9203 106.226 11.6806 106.337 11.8887 106.212L11.9347 106.233C11.9347 106.148 12.3929 106.088 12.535 106.062L12.719 106.311C13.0432 106.279 12.627 106.186 12.9491 106.154C13.4073 106.096 15.048 106.068 15.164 106.329C15.7182 106.309 15.8803 106.164 16.4545 106.198C16.4085 106.265 16.2705 106.289 16.2504 106.323C17.4709 106.375 18.9715 106.291 20.126 106.44C21.0684 106.373 21.8767 106.335 22.4749 106.164C22.2208 106.184 21.4825 106.126 21.9447 105.981C22.1988 105.877 22.589 105.915 22.9811 105.871C22.8891 106.001 23.9735 105.993 23.1912 106.086C23.3893 106.371 24.8819 106.03 24.8699 106.313C25.0539 106.227 26.1664 106.277 26.5846 106.124C26.6766 106.249 25.9823 106.21 25.9843 106.295L26.4905 106.255V106.339C27.4609 106.411 27.643 106.064 28.2192 106.011L28.1972 106.044L28.5894 105.997L28.1292 106.226C28.7514 106.192 29.0735 105.989 29.7658 105.943L29.8358 106.015L30.252 105.937C30.182 105.951 30.158 105.983 30.204 106.003C30.5962 105.786 31.4965 105.871 31.8647 105.688C32.1408 105.72 32.3749 105.989 32.743 105.804L32.673 106.072C31.7506 106.106 32.3288 105.883 31.3585 105.981C32.0747 106.327 34.0815 106.287 35.4201 106.263C36.5025 106.086 38.2812 106.371 38.7414 105.973L38.6273 106.136L40.4481 106.273C41.9947 106.206 43.5853 106.331 44.7618 106.108L45.0859 106.245C46.3044 105.786 49.2376 106.054 50.0419 105.503C50.7322 105.626 49.8338 105.712 49.7658 105.81C50.274 105.855 51.1263 105.495 51.6125 105.744C51.6125 105.829 50.8982 105.823 51.2204 105.875C51.5885 106.032 51.7486 105.718 52.1667 105.895C51.9827 105.732 52.835 105.541 53.4553 105.509C53.3792 105.505 53.3245 105.496 53.2912 105.483C53.2012 105.358 53.6633 105.384 53.9174 105.364C53.9174 105.364 53.8934 105.396 53.8254 105.41C57.0287 105.199 60.6961 105.101 64.0635 105.256L63.4432 105.374C63.9274 105.284 64.7818 105.348 65.0579 105.38L64.9878 105.392C65.8882 105.648 66.0022 105.143 66.6965 105.439L66.5605 105.465C67.6449 105.457 68.2891 105.732 69.3496 105.587C70.1819 105.686 70.0899 105.816 70.6681 105.933C71.1523 105.927 71.3804 105.768 71.4044 105.736L71.1723 105.722C70.9182 105.571 71.6805 105.597 72.0246 105.533C71.7705 105.298 71.9086 104.93 70.9362 104.689C70.2219 104.767 70.2419 104.309 69.4356 104.349C68.9754 104.663 68.2812 104.114 67.5449 104.395C67.937 104.18 66.6685 104.279 67.3108 104.042C67.0107 103.871 65.7441 104.227 65.1659 104.024C65.26 103.977 65.2379 103.925 65.374 103.899C64.5657 104.024 64.8198 103.748 64.2195 103.748L64.2415 103.971C64.0094 104.044 63.9414 103.887 63.7333 103.925C63.8974 103.951 64.2415 104.056 64.0595 104.148C63.7834 104.2 63.5513 104.273 63.2532 104.273C63.2491 104.188 63.4572 104.148 63.5993 104.122C63.5993 104.122 62.951 104.102 62.905 103.997C63.1371 103.925 63.4352 103.925 63.6393 103.801C62.787 103.736 63.5713 103.728 63.1551 103.553C63.2712 103.815 62.4168 103.664 61.9566 103.724C61.9086 103.62 62.2788 103.692 62.3948 103.612C61.5165 103.153 61.0803 103.69 59.9498 103.593C59.9718 103.561 60.1119 103.535 60.1819 103.521C59.6497 103.593 59.2796 103.35 58.9354 103.503C58.4272 103.457 58.8434 103.208 58.0571 103.216C58.2872 103.483 57.1347 103.163 57.1127 103.451L56.5105 103.282C55.9783 103.439 56.6525 103.766 55.6141 103.792C54.6677 103.688 55.7041 103.32 55.1519 103.171L54.9198 103.328L54.4576 103.218L54.5277 103.204C54.2496 103.256 53.7454 103.21 53.7434 103.125C53.7894 103.059 54.0895 103.059 54.1335 102.995C53.6753 103.139 52.3128 102.603 51.8286 103.035C51.5565 102.958 50.9963 102.96 51.0683 102.824C50.8202 103.015 49.8398 102.763 49.4737 102.886C49.5217 102.82 49.1735 102.715 48.8974 102.767C49.2676 102.84 49.0355 102.912 48.7854 103.017C48.4593 102.878 47.5389 102.997 47.3988 102.767C46.8906 102.892 47.0767 103.055 46.9647 103.22C46.6385 103.083 45.6001 103.109 45.7842 102.848C46.0623 102.88 46.6866 102.932 46.5685 102.755C46.0383 102.659 46.3384 102.828 45.9022 102.854C45.9343 102.806 45.6041 102.693 45.6882 102.617C45.4301 102.645 45.0679 102.643 44.6998 102.599C45.276 102.717 44.3316 102.781 44.6778 102.886L45.23 102.695C45.9002 102.683 45.37 102.84 45.6241 102.904C44.4477 102.956 44.6798 103.226 43.5733 103.35C43.3652 103.304 42.9971 103.234 42.881 103.226C43.2492 103.212 43.1792 102.97 42.9691 102.924C42.3508 103.127 41.8626 102.794 41.3544 102.747C41.7946 102.806 41.5625 102.962 41.4025 103.023C40.342 103.167 40.9863 102.932 40.5241 102.82C38.8895 102.846 37.849 102.532 36.5365 102.697L37.1588 102.92L37.3648 102.711C37.849 102.874 37.2748 103.183 36.9987 103.32C36.9287 103.248 36.1203 103.288 36.4425 103.169L35.6582 103.262C35.7742 103.354 36.2824 103.314 35.9163 103.413C35.6582 103.346 34.8538 103.302 35.36 103.177C34.9459 103.171 34.4157 103.244 34.5077 103.368C33.8394 103.38 34.5777 103.099 34.8759 103.015C34.3456 103.003 34.4157 102.82 34.5737 102.759L33.8374 102.786C33.9975 102.727 33.9975 102.643 34.1576 102.583C33.6734 102.504 33.3272 102.739 32.9131 102.562L32.729 102.739C31.3925 102.595 31.5285 102.568 30.282 102.55L30.4901 102.681C29.5457 102.916 29.7978 102.472 28.5293 102.57C27.815 102.651 27.3529 102.709 27.4469 102.918C27.0327 102.997 26.9387 102.872 26.7526 102.794C26.4305 102.912 25.7402 103.127 25.232 102.997C25.5782 102.932 25.8543 102.878 26.1764 102.846C26.0824 102.637 25.07 102.802 24.5397 102.703C24.1696 102.802 22.9711 103.057 22.3029 103.242C22.605 103.413 22.4889 103.662 21.8907 103.831C21.9827 103.7 21.0824 103.7 20.6682 103.608C20.8723 103.483 19.7438 103.302 20.6182 103.248C20.8723 103.312 20.9883 103.491 21.3345 103.425C21.1264 103.294 20.5702 103.143 19.9939 103.025C20.038 102.958 20.3401 102.874 20.6382 102.874C20.4741 102.932 20.5702 102.972 20.5922 103.025H20.5962Z" fill="#495E57"/>
	<path d="M1.34251 39.3624C1.34051 39.3945 1.33651 39.4247 1.33451 39.4568L1.38253 39.3403C1.36652 39.3784 1.35251 39.3784 1.34251 39.3624Z" fill="#495E57"/>
	<path d="M4.10161 102.946C4.0856 102.954 4.04158 102.984 4.01757 103.013C4.04559 102.995 4.0736 102.976 4.10161 102.946Z" fill="#495E57"/>
	<path d="M3.88552 92.4826C3.86751 92.4967 3.84951 92.4987 3.8315 92.5047C3.84351 92.5148 3.86151 92.5128 3.88552 92.4826Z" fill="#495E57"/>
	<path d="M2.8171 38.5443L2.85911 38.7694C2.85911 38.687 2.8371 38.6488 2.8171 38.5443Z" fill="#495E57"/>
	<path fill-rule="evenodd" clip-rule="evenodd" d="M54.5896 117.106C53.7693 116.672 52.887 116.377 51.8766 116.425L51.8746 116.429C51.3204 116.379 50.7301 116.501 50.1499 116.648C49.7057 116.761 49.2435 116.899 48.8654 117.144C48.4232 117.432 48.003 117.788 47.6709 118.214L47.6282 118.268C47.264 118.734 46.9011 119.198 46.7605 119.812C46.7144 120.012 46.6565 120.209 46.5986 120.406C46.4831 120.798 46.3677 121.191 46.3464 121.612C46.3408 121.718 46.3244 121.825 46.308 121.932C46.277 122.134 46.2458 122.337 46.2863 122.533C46.3235 122.712 46.3451 122.894 46.3666 123.075C46.4056 123.403 46.4445 123.73 46.5745 124.044C46.6793 124.3 46.7485 124.569 46.8178 124.838C46.8384 124.918 46.859 124.998 46.8806 125.078C46.8834 125.088 46.8861 125.098 46.8887 125.107C46.8905 125.114 46.8923 125.121 46.8941 125.128C46.9155 125.21 46.9358 125.288 46.9906 125.363C47.4688 126.022 48.039 126.597 48.6573 127.12C49.0394 127.441 49.4876 127.717 49.9778 127.793C50.0996 127.812 50.2212 127.833 50.3427 127.853C50.9538 127.957 51.5645 128.06 52.2087 127.96C52.839 127.861 53.4492 127.739 54.0434 127.516C54.6837 127.276 55.2599 126.905 55.7161 126.422C56.2703 125.839 56.6805 125.134 56.9186 124.342C56.9646 124.189 56.9986 124.044 57.0026 123.888C57.0066 123.749 57.0146 123.61 57.0346 123.474C57.0514 123.355 57.0695 123.236 57.0877 123.118C57.1476 122.727 57.2075 122.336 57.2167 121.938C57.2201 121.804 57.189 121.681 57.1579 121.558C57.1345 121.466 57.1112 121.373 57.1026 121.277C57.0466 120.624 56.8946 119.996 56.6085 119.398C56.4742 119.118 56.2943 118.872 56.1143 118.627C56.01 118.485 55.9056 118.343 55.8101 118.194C55.504 117.715 55.0638 117.357 54.5896 117.106ZM53.009 125.95C52.2447 126.302 51.5825 126.113 50.8362 125.867H50.8382C50.7886 125.829 50.7381 125.782 50.6846 125.732C50.589 125.644 50.4836 125.547 50.358 125.47C49.9615 125.224 49.8144 124.798 49.6743 124.393L49.6739 124.392L49.6735 124.391C49.6576 124.345 49.6418 124.299 49.6257 124.254C49.4136 123.659 49.2475 123.04 49.2895 122.386C49.3056 122.14 49.3018 121.891 49.298 121.643C49.2956 121.49 49.2933 121.337 49.2955 121.184C49.3055 120.485 49.4736 119.822 49.7977 119.205C50.1539 118.527 50.7761 118.202 51.4944 118.224C52.0706 118.242 52.6169 118.483 53.069 118.901C53.4792 119.281 53.6833 119.767 53.8814 120.266C54.1135 120.849 54.2255 121.452 54.1935 122.085C54.1746 122.442 54.1822 122.801 54.1898 123.16L54.1935 123.339C54.2135 124.292 53.8774 125.092 53.1911 125.747C53.1105 125.824 53.0399 125.912 53.0148 125.943L53.009 125.95Z" fill="#495E57"/>
	<path d="M72.4528 117.886C72.3015 117.924 72.1582 117.982 72.0141 118.042C71.8266 118.118 71.6377 118.196 71.4284 118.228V127.435C71.3663 127.644 71.2623 127.731 71.1262 127.817H69.6176C69.3558 127.669 69.1831 127.422 69.0106 127.175C68.9564 127.097 68.9023 127.019 68.8453 126.945C68.0439 125.89 67.277 124.807 66.5103 123.725L66.2723 123.389C65.9925 122.994 65.6947 122.608 65.3968 122.223C65.209 121.98 65.0211 121.738 64.8377 121.492C64.7965 121.437 64.7473 121.389 64.6961 121.338C64.6702 121.312 64.6438 121.286 64.6176 121.259C64.5176 121.641 64.4836 124.76 64.5596 126.093C64.7243 126.238 64.9407 126.265 65.1575 126.292C65.4306 126.327 65.7044 126.361 65.8761 126.631C65.9159 126.905 65.8598 127.158 65.8052 127.404C65.78 127.517 65.7552 127.629 65.7401 127.741C65.3479 127.853 62.7049 127.883 61.5484 127.795C61.3703 127.592 61.2383 127.379 61.3643 127.065C61.407 126.959 61.4128 126.838 61.4187 126.713C61.4214 126.656 61.4241 126.598 61.4304 126.541C61.5708 126.412 61.7509 126.361 61.9338 126.31C62.1132 126.26 62.2952 126.209 62.4448 126.083V118.385C62.2934 118.256 62.1057 118.199 61.9147 118.142C61.7094 118.08 61.5004 118.017 61.3283 117.862C61.3257 117.821 61.3228 117.781 61.3199 117.74C61.2944 117.383 61.2684 117.018 61.3924 116.63H63.4532C63.4784 116.63 63.5037 116.63 63.5289 116.63C63.7617 116.632 63.994 116.633 64.2215 116.499C64.5317 116.764 64.7388 117.099 64.9451 117.432C65.1114 117.7 65.2772 117.968 65.496 118.198C65.8208 118.537 66.0961 118.925 66.3714 119.313C66.5064 119.503 66.6416 119.693 66.7825 119.878C66.9683 120.122 67.1337 120.38 67.2991 120.638C67.5148 120.975 67.7305 121.312 67.991 121.617C68.1928 121.852 68.379 122.099 68.5668 122.348C68.8055 122.665 69.0467 122.985 69.3255 123.289C69.3255 123.029 69.327 122.77 69.3285 122.51V122.509C69.3319 121.924 69.3354 121.339 69.3215 120.754C69.3153 120.497 69.3222 120.24 69.329 119.983C69.3442 119.41 69.3594 118.838 69.2295 118.28C69.0724 118.155 68.8923 118.114 68.7113 118.074C68.5465 118.037 68.3808 118 68.2311 117.898C68.1567 117.687 68.1673 117.463 68.1778 117.242C68.184 117.111 68.1902 116.981 68.1791 116.855C68.2331 116.696 68.3431 116.616 68.4912 116.531C68.6641 116.543 68.8395 116.543 69.0169 116.544C69.3425 116.545 69.6751 116.546 70.0118 116.614C70.2904 116.67 70.5835 116.657 70.8764 116.643C71.0042 116.638 71.1319 116.632 71.2583 116.632H72.4548V117.888L72.4528 117.886Z" fill="#495E57"/>
	<path d="M41.6725 126.171C41.7975 126.23 41.9354 126.253 42.0735 126.277C42.3312 126.321 42.5898 126.364 42.7669 126.639C42.8083 126.826 42.7648 127.012 42.7205 127.202C42.6811 127.371 42.641 127.543 42.6589 127.721C42.6307 127.736 42.6054 127.753 42.5818 127.769C42.5368 127.799 42.4982 127.825 42.4588 127.825C40.9662 127.829 39.4736 127.825 37.981 127.819C37.9433 127.819 37.9055 127.787 37.8634 127.751C37.8431 127.734 37.8218 127.716 37.799 127.701V126.617C37.9405 126.388 38.1781 126.327 38.4282 126.264C38.599 126.22 38.7756 126.176 38.9314 126.074C38.9137 125.758 38.9158 125.439 38.918 125.117C38.9214 124.603 38.9249 124.083 38.8474 123.56C38.7493 122.899 38.6633 122.221 38.7173 121.542C38.7413 121.251 38.7213 120.953 38.6473 120.646C38.5273 120.955 38.4079 121.264 38.2886 121.573L38.2881 121.574C37.9838 122.362 37.6793 123.151 37.3648 123.936C37.1496 124.474 36.9663 125.024 36.7849 125.568C36.597 126.132 36.4112 126.689 36.1943 127.22C35.6205 127.433 35.0842 127.42 34.5547 127.407C34.414 127.404 34.2738 127.4 34.1335 127.401C33.6353 126.273 33.2511 125.154 32.881 124.032C32.7171 123.534 32.5345 123.042 32.3506 122.547C32.126 121.942 31.8994 121.332 31.7025 120.698C31.5806 120.958 31.5547 121.186 31.5284 121.417L31.5205 121.486C31.4539 122.023 31.4501 122.562 31.4462 123.1C31.4432 123.533 31.4401 123.965 31.4044 124.396C31.3624 124.897 31.3244 125.395 31.3164 125.896C31.3164 125.914 31.3155 125.933 31.3146 125.952C31.3107 126.038 31.3065 126.129 31.3784 126.235C31.7265 126.243 32.0907 126.32 32.4428 126.402C32.6469 126.64 32.5959 126.911 32.5506 127.151L32.5436 127.188L32.5389 127.214L32.5318 127.255C32.4964 127.466 32.4533 127.721 32.1287 127.823H28.3772C28.2552 127.773 28.1691 127.666 28.0971 127.54V126.661C28.245 126.404 28.4827 126.338 28.7352 126.267C28.9027 126.22 29.0768 126.172 29.2355 126.064C29.26 126.037 29.253 125.974 29.2449 125.902C29.2404 125.862 29.2355 125.819 29.2355 125.777C29.234 125.168 29.3039 124.567 29.374 123.965C29.3916 123.814 29.4092 123.663 29.4256 123.512C29.4699 123.104 29.4579 122.688 29.4461 122.274C29.4429 122.164 29.4397 122.054 29.4376 121.944C29.4297 121.519 29.4967 121.103 29.5636 120.688C29.5815 120.578 29.5993 120.467 29.6157 120.356C29.6402 120.192 29.6406 120.023 29.641 119.855C29.6412 119.762 29.6414 119.669 29.6457 119.576C29.6502 119.485 29.6489 119.394 29.6476 119.302C29.6443 119.065 29.641 118.829 29.7378 118.6C29.7758 118.511 29.7698 118.393 29.6577 118.27C29.5093 118.191 29.3355 118.165 29.1553 118.139C28.9397 118.107 28.7149 118.073 28.5133 117.946C28.5116 117.898 28.5096 117.849 28.5076 117.801C28.4922 117.431 28.4769 117.064 28.6413 116.696C28.7714 116.584 28.9434 116.535 29.1435 116.539C29.3283 116.542 29.514 116.537 29.6996 116.531C30.0546 116.521 30.4093 116.51 30.7562 116.557C31.2013 116.619 31.6465 116.623 32.083 116.626C32.3213 116.628 32.5571 116.631 32.789 116.642C32.9552 116.725 33.0046 116.864 33.0518 116.996C33.0625 117.026 33.0732 117.055 33.0851 117.084C33.3791 117.779 33.6175 118.493 33.8558 119.208L33.8562 119.209C33.9437 119.471 34.0312 119.733 34.1215 119.994C34.4195 120.858 34.7107 121.722 35.0019 122.586L35.008 122.604C35.0979 122.871 35.1878 123.138 35.278 123.405C35.316 123.52 35.36 123.626 35.472 123.759C35.8133 122.77 36.1529 121.785 36.4915 120.803C36.9646 119.431 37.4358 118.065 37.907 116.7C38.0771 116.547 38.2792 116.539 38.4912 116.541C39.3511 116.544 40.2098 116.544 41.0699 116.544L41.9306 116.543C42.0647 116.59 42.1647 116.682 42.2347 116.799C42.2921 117.017 42.2448 117.219 42.1979 117.421C42.1629 117.57 42.1281 117.72 42.1367 117.874C41.9889 117.972 41.824 118.015 41.6589 118.058C41.4663 118.108 41.2732 118.158 41.1063 118.296C41.1301 118.568 41.1293 118.841 41.1286 119.117C41.1275 119.49 41.1265 119.867 41.1863 120.248C41.2783 120.839 41.3524 121.444 41.3284 122.057C41.2967 122.842 41.4022 123.624 41.5072 124.402L41.5104 124.426C41.5364 124.615 41.5344 124.81 41.5224 125.001C41.5041 125.285 41.5544 125.557 41.6054 125.833C41.6266 125.948 41.648 126.064 41.6645 126.181L41.6725 126.171Z" fill="#495E57"/>
	<path d="M15.8423 118.252C15.7129 118.199 15.5733 118.171 15.4326 118.142C15.1928 118.094 14.9496 118.044 14.7478 117.872C14.7118 117.456 14.7098 117.066 14.9179 116.708C14.9293 116.701 14.94 116.692 14.9503 116.684C14.9709 116.667 14.99 116.651 15.01 116.65L15.0912 116.642C16.0088 116.552 16.9318 116.461 17.8511 116.545C17.9544 116.555 18.058 116.566 18.1616 116.576C18.6276 116.625 19.0947 116.674 19.5498 116.608C20.138 116.523 20.7262 116.489 21.3025 116.549C21.7627 116.598 22.2229 116.607 22.6921 116.617C22.9063 116.621 23.1224 116.626 23.3413 116.634C23.7284 117.573 23.7126 118.546 23.6967 119.517C23.6947 119.644 23.6926 119.772 23.6914 119.9C23.6821 119.913 23.6734 119.926 23.665 119.939C23.6424 119.972 23.6215 120.003 23.5954 120.031C23.5661 120.061 23.5347 120.089 23.5015 120.118C23.4801 120.137 23.458 120.156 23.4353 120.177H22.2748C22.0278 119.858 21.8709 119.487 21.7124 119.112C21.6154 118.883 21.5177 118.652 21.3985 118.431H18.6694C18.5454 118.541 18.4833 118.696 18.4933 118.877C18.5068 119.125 18.4981 119.374 18.4894 119.625C18.4721 120.12 18.4546 120.622 18.6074 121.13H20.2881C20.4689 121.13 20.6494 121.129 20.8299 121.129C21.1006 121.128 21.3713 121.127 21.6426 121.128C21.6649 121.128 21.6875 121.127 21.7102 121.127C21.8426 121.122 21.9801 121.117 22.0928 121.265C22.1871 121.53 22.1337 121.797 22.0804 122.064C22.0376 122.278 21.9949 122.492 22.0287 122.704C21.9667 122.841 21.8767 122.921 21.7286 123.013H18.6654C18.5674 123.429 18.5454 125.144 18.6254 125.916C18.7654 125.929 18.9047 125.949 19.0441 125.969C19.4664 126.029 19.8898 126.09 20.3381 125.972C20.5982 125.905 20.8797 125.922 21.1515 125.939C21.2706 125.947 21.3878 125.954 21.5005 125.954C21.7466 125.825 21.8427 125.618 21.9127 125.403C21.9928 125.16 22.1096 124.935 22.2264 124.71C22.3081 124.552 22.3898 124.395 22.4589 124.231C22.5069 124.119 22.605 124.038 22.713 123.98C23.1206 123.909 23.5004 124.007 23.9073 124.111L23.9995 124.135C24.0275 125.399 24.0135 126.613 23.5113 127.755C23.0752 127.857 16.4105 127.895 14.9059 127.809C14.7056 127.575 14.7225 127.307 14.739 127.044C14.7468 126.921 14.7545 126.799 14.7398 126.682C14.8788 126.388 15.1359 126.334 15.3883 126.282C15.5539 126.248 15.7175 126.214 15.8443 126.113C15.8943 125.482 15.8923 118.748 15.8403 118.252H15.8423Z" fill="#495E57"/>
	<path d="M10.4484 124.214C10.4453 124.031 10.4421 123.844 10.4421 123.648H10.4401C10.1804 123.516 9.91815 123.53 9.66643 123.544C9.53606 123.551 9.40852 123.558 9.28564 123.544C9.10757 123.651 9.03554 123.787 8.96351 123.958C8.70141 124.577 8.35527 125.158 8.00913 125.735C7.87908 125.954 7.70701 126.044 7.46291 126.044C6.82199 126.04 6.18107 126.04 5.54015 126.04H5.53615C5.4241 126.04 5.33407 126.004 5.29005 125.938C5.12692 125.431 5.13087 124.932 5.13479 124.438C5.13539 124.362 5.13599 124.287 5.13599 124.211C5.13599 123.884 5.172 123.562 5.22002 123.234C5.26517 122.933 5.2556 122.624 5.24603 122.315C5.24203 122.186 5.23803 122.057 5.23803 121.928V118.389C5.46423 118.204 5.73636 118.167 6.00593 118.13C6.28478 118.092 6.5609 118.054 6.78064 117.854V116.907C6.71462 116.793 6.63658 116.702 6.49253 116.628H3.76744C3.64334 116.628 3.51682 116.608 3.39259 116.588C3.24043 116.564 3.09171 116.541 2.95512 116.555C2.65617 116.588 2.35721 116.603 2.05748 116.618C1.94598 116.624 1.83438 116.629 1.72263 116.636C1.60658 116.642 1.54456 116.728 1.48854 116.837C1.49854 117.12 1.48053 117.412 1.38049 117.667C1.51559 117.961 1.77121 118.014 2.02068 118.066C2.2072 118.105 2.39027 118.142 2.51695 118.28V126.062C2.36942 126.219 2.1791 126.261 1.99169 126.303C1.80549 126.345 1.62215 126.385 1.48654 126.537C1.49056 126.661 1.48626 126.784 1.48201 126.906C1.47359 127.147 1.46538 127.382 1.52255 127.606C1.75264 127.821 2.00674 127.827 2.27085 127.827C3.39252 127.826 4.51354 127.827 5.63428 127.829C6.47469 127.83 7.31494 127.831 8.15519 127.831C8.27356 127.831 8.39194 127.832 8.51031 127.832C8.82611 127.833 9.14191 127.834 9.45771 127.827C9.79184 127.819 9.91789 127.719 10.0239 127.407C10.252 126.738 10.3821 126.046 10.4341 125.345C10.4615 124.978 10.4551 124.608 10.4484 124.214Z" fill="#495E57"/>
	<path d="M62.3749 10.1421V11.1772C62.4037 11.1953 62.4293 11.2149 62.4529 11.2328C62.4997 11.2684 62.5383 11.2978 62.5769 11.2978C65.4021 11.3018 68.2292 11.3018 71.0883 11.3018C71.4665 10.124 71.7546 8.94818 71.6125 7.67791C71.5385 7.60957 71.4505 7.52917 71.3724 7.45883H70.178C69.8612 8.08952 69.5425 8.72021 69.2185 9.36155L69.1776 9.44262C68.7189 9.39274 68.2659 9.43535 67.8133 9.47794C67.263 9.52972 66.7132 9.58144 66.1544 9.46674C66.0698 8.76313 66.1294 8.08269 66.1892 7.39933C66.2157 7.09694 66.2423 6.79384 66.2564 6.48803H69.3977C69.6744 6.23173 69.6672 5.91941 69.6602 5.61671C69.6549 5.38768 69.6497 5.16415 69.7678 4.97456C69.7198 4.82784 69.6758 4.71729 69.5537 4.60072H66.1504C66.0877 4.19179 66.1319 3.7897 66.1758 3.39067C66.23 2.8973 66.2837 2.40861 66.1344 1.91747H69.0355L69.2731 2.48174L69.2767 2.49032L69.2877 2.51653C69.4474 2.89574 69.6047 3.26957 69.7638 3.646C70.234 3.6862 70.6782 3.69022 71.1223 3.646C71.4007 3.24249 71.3678 2.80884 71.3358 2.38773C71.3273 2.2762 71.3189 2.16513 71.3164 2.05615C71.3004 1.3969 71.1864 0.737642 70.9843 0.108536C70.7426 0.100849 70.5063 0.101736 70.2735 0.10261C69.7758 0.104477 69.2946 0.106282 68.8134 0.0241188C68.5193 -0.0261293 68.2072 0.00803939 67.8931 0.0844165C67.6205 0.150707 67.3366 0.109539 67.0525 0.068333C66.9403 0.0520696 66.8281 0.0357981 66.7166 0.0261287C66.2064 -0.0180896 65.6902 0.0221089 65.172 0.0864264C64.6842 0.148239 64.1875 0.132023 63.691 0.115816C63.5256 0.110416 63.3602 0.105017 63.1952 0.102506C63.106 0.101149 63.0177 0.0741266 62.9285 0.0468181C62.8857 0.0336931 62.8425 0.0204869 62.799 0.0100493C62.7598 0.0320532 62.718 0.0488857 62.6755 0.0659775C62.5705 0.10821 62.4615 0.15204 62.3789 0.279379C62.4173 0.444202 62.3784 0.613438 62.3388 0.785846C62.2938 0.981343 62.248 1.18098 62.3128 1.38283C62.501 1.48818 62.6986 1.53249 62.8892 1.57522C63.0696 1.61565 63.2436 1.65466 63.3973 1.7426C63.4298 2.39641 63.4257 3.04692 63.4217 3.69553C63.4162 4.56423 63.4108 5.42978 63.4933 6.29508C63.5493 6.89396 63.536 7.49909 63.5227 8.10452C63.516 8.40733 63.5093 8.71029 63.5113 9.0125C63.5133 9.26374 63.4913 9.49689 63.3032 9.68582C63.2086 9.7228 63.1062 9.74418 63.004 9.76553C62.7563 9.81729 62.5094 9.86887 62.3749 10.1421Z" fill="#495E57"/>
	<path d="M36.8918 0.106505L36.8886 0.106505L36.8926 0.104495L36.8918 0.106505Z" fill="#495E57"/>
	<path d="M36.627 1.52037C36.664 1.04788 36.7014 0.570683 36.8918 0.106505C37.493 0.106515 38.0891 0.109168 38.6815 0.111805C40.152 0.118351 41.5996 0.124795 43.0451 0.0904258C43.3842 0.0828376 43.7236 0.0678219 44.0632 0.0527971C44.5332 0.032005 45.0036 0.0111957 45.474 0.0100289C45.7221 0.0100289 45.9562 0.0301281 46.1783 0.223081C46.1955 0.302967 46.2175 0.385294 46.2402 0.470301C46.2758 0.603426 46.3132 0.743195 46.3364 0.890375C46.4618 1.68066 46.4436 2.47384 46.4254 3.26745C46.4221 3.41037 46.4189 3.5533 46.4164 3.69623C46.4164 3.75735 46.3744 3.81847 46.3311 3.88144C46.3103 3.91162 46.2892 3.94236 46.2724 3.9736H45.282C45.0738 3.89687 44.986 3.71764 44.8984 3.53897L44.8858 3.51333C44.7229 3.18242 44.5608 2.85076 44.3999 2.52157C44.2979 2.3129 44.1964 2.10522 44.0955 1.89936H42.831C42.7459 2.39036 42.7952 2.87749 42.8444 3.36368C42.882 3.73524 42.9195 4.10632 42.897 4.47809C42.8757 4.83857 42.8711 5.19941 42.8665 5.56077C42.8603 6.04759 42.8541 6.53557 42.807 7.02466C42.7664 7.4384 42.8047 7.85355 42.843 8.26807C42.884 8.71138 42.9248 9.15398 42.869 9.59335C43.0765 9.72364 43.3 9.75448 43.5143 9.78405C43.7298 9.81378 43.936 9.84224 44.1075 9.9692C44.1775 10.6727 44.1655 10.7852 43.9874 11.1832C43.2071 11.356 42.4068 11.3641 41.6025 11.2355C41.5088 11.2203 41.4226 11.2454 41.3351 11.2708C41.2602 11.2926 41.1845 11.3146 41.1023 11.3118C40.6001 11.2937 40.0959 11.2978 39.5937 11.3078C39.3616 11.3118 39.1615 11.2334 38.9454 11.143V10.1039C39.1004 9.86223 39.3543 9.80994 39.6159 9.75606C39.807 9.71673 40.0021 9.67654 40.1659 9.56119V1.92348H38.8834C38.7417 2.13781 38.6383 2.39763 38.5333 2.66118C38.5005 2.74361 38.4676 2.82645 38.4332 2.90834C38.3857 3.02097 38.3438 3.13617 38.3018 3.25177C38.2149 3.49098 38.1273 3.73192 37.9871 3.95551C37.769 3.99682 37.5524 3.98979 37.3428 3.98298C37.2158 3.97886 37.0914 3.97482 36.9707 3.98164C36.8346 3.92134 36.7426 3.84496 36.6525 3.70628C36.6649 3.49876 36.6294 3.28768 36.5933 3.07323C36.548 2.80377 36.5017 2.52886 36.5485 2.24908C36.5888 2.0091 36.6078 1.76537 36.627 1.52037Z" fill="#495E57"/>
	<path d="M30.5822 11.0063C30.4782 11.1611 30.3961 11.2495 30.2641 11.3098H30.2621C28.8402 11.3098 27.4023 11.3098 25.9624 11.3118C25.7503 11.3118 25.5482 11.3038 25.3741 11.1229V10.128C25.5174 9.86486 25.7684 9.82129 26.0258 9.7766C26.2286 9.74141 26.4353 9.70552 26.5966 9.56119V1.93152C26.3736 1.88328 26.1494 1.88886 25.9178 1.89463C25.7442 1.89895 25.5665 1.90338 25.3821 1.88529C25.052 2.53651 24.7259 3.17968 24.3877 3.84497L24.3834 3.84634C23.9546 3.98057 23.5179 4.11728 23.0772 3.81281C23.0772 3.60324 23.0684 3.39312 23.0596 3.18384C23.0394 2.70267 23.0194 2.22595 23.1072 1.77073C23.1449 1.57578 23.1409 1.37531 23.1368 1.17322C23.1297 0.816896 23.1224 0.455529 23.3433 0.11053H23.8915C24.2038 0.11053 24.5165 0.116507 24.829 0.122483C25.5418 0.136109 26.2542 0.149727 26.9608 0.0924409C27.8951 0.0160638 28.8275 -0.0341843 29.7539 0.0341531C30.3551 0.0797146 30.9572 0.0881796 31.5618 0.0966793C31.8907 0.101303 32.2204 0.105937 32.551 0.11656C32.7671 0.584872 32.8711 1.0572 32.8591 1.53557C32.8535 1.77517 32.8622 2.01575 32.8708 2.25524C32.89 2.78719 32.909 3.31388 32.7711 3.81281C32.3481 4.01643 31.9651 3.995 31.5775 3.97332L31.5466 3.97159C31.3779 3.77078 31.2896 3.53626 31.2022 3.30426C31.1497 3.16473 31.0975 3.02611 31.0284 2.89628C30.9557 2.75908 30.9034 2.61162 30.8505 2.46248C30.771 2.23803 30.69 2.00977 30.5362 1.80691C30.4558 1.80577 30.3753 1.8022 30.2947 1.79863C29.9479 1.78326 29.5998 1.76783 29.2557 1.94559C29.1816 2.05413 29.1956 2.2109 29.2337 2.32949C29.343 2.67123 29.3338 3.01772 29.3247 3.36349C29.322 3.46715 29.3192 3.57074 29.3197 3.67413C29.324 4.95588 29.3232 6.23865 29.3223 7.52099V7.52218C29.322 8.03492 29.3217 8.54822 29.3217 9.06072V9.55516C29.4966 9.67832 29.7039 9.71058 29.9091 9.74252C30.2062 9.78876 30.4988 9.83431 30.6822 10.1541C30.5842 10.4275 30.5482 10.7169 30.5802 11.0083L30.5822 11.0063Z" fill="#495E57"/>
	<path d="M1.74469 11.0244C1.81072 11.135 1.89275 11.2234 2.0308 11.2978V11.2958H9.99797C10.148 11.1953 10.2521 11.1008 10.2941 10.928C10.3249 10.7994 10.3595 10.6716 10.394 10.5439C10.5119 10.1081 10.6296 9.67262 10.6002 9.20948C10.5931 9.10094 10.6133 8.99241 10.6334 8.88387C10.6416 8.83965 10.6499 8.79543 10.6562 8.75122C10.7363 8.22261 10.7163 7.68797 10.6822 7.12519C10.4919 7.14789 10.3147 7.11369 10.1374 7.07945C9.90645 7.03487 9.67514 6.99021 9.41374 7.07092C9.0696 7.84072 8.69546 8.63263 8.23927 9.40444C7.6687 9.55819 7.08642 9.54452 6.48577 9.53042C6.19127 9.52351 5.89233 9.51649 5.58822 9.52906C5.59139 9.21481 5.56944 8.91234 5.54802 8.61721C5.52889 8.35358 5.51019 8.09581 5.51019 7.84072C5.50817 7.33635 5.49988 6.83159 5.4916 6.32704C5.46712 4.835 5.44266 3.3447 5.58022 1.87125C5.79037 1.70197 6.03815 1.65913 6.28605 1.61627C6.56209 1.56855 6.83827 1.5208 7.06281 1.29842C7.03236 1.15649 7.0412 1.00875 7.05024 0.857711C7.06437 0.621586 7.07899 0.377381 6.94476 0.134671H1.81072C1.69267 0.552735 1.72468 0.95673 1.7627 1.35268C1.95867 1.51439 2.1866 1.56406 2.41398 1.61361C2.57661 1.64905 2.73897 1.68443 2.88915 1.7607C2.8673 2.10782 2.86967 2.45297 2.87203 2.79735C2.87552 3.30441 2.87899 3.8098 2.80511 4.31732C2.74106 4.75875 2.78347 5.21133 2.82584 5.66343C2.84038 5.81859 2.85491 5.97369 2.86514 6.12826C2.90964 6.78404 2.8996 7.44255 2.88955 8.10134C2.8847 8.41983 2.87984 8.73838 2.88114 9.05672C2.88314 9.29189 2.84113 9.50092 2.67706 9.68382C2.58595 9.71793 2.48764 9.73837 2.38901 9.75888C2.13891 9.81088 1.88675 9.86332 1.74469 10.1401V11.0244Z" fill="#495E57"/>
	<path d="M50.9803 9.5371C50.8063 8.7472 50.8003 7.93921 50.8783 7.15333C50.9772 6.15897 50.9644 5.16461 50.9516 4.17093C50.9414 3.37503 50.9312 2.5795 50.9783 1.78483C50.7911 1.61371 50.5612 1.5691 50.3335 1.52492C50.1574 1.49074 49.9826 1.45681 49.8299 1.36475C49.7999 0.936637 49.7818 0.544702 50.0239 0.150757C50.1258 0.137193 50.2294 0.120981 50.3343 0.104559C50.5714 0.0674443 50.8155 0.0292487 51.0624 0.018102C51.6671 -0.00924479 52.2704 0.0293762 52.8739 0.0680094C53.5124 0.108881 54.1511 0.149766 54.7918 0.112568C54.9239 0.104529 55.0299 0.148747 55.114 0.299491V1.20999C54.8955 1.51703 54.5725 1.59501 54.2393 1.67548C54.0446 1.72249 53.8464 1.77035 53.6634 1.86522C53.7075 2.27641 53.6655 2.68895 53.6232 3.10479C53.5925 3.40648 53.5617 3.70992 53.5634 4.01584C53.5706 5.30831 53.5694 6.60185 53.5683 7.89258V7.89429C53.5678 8.37736 53.5674 8.86005 53.5674 9.34214C53.8355 9.41852 55.7862 9.53107 56.1384 9.49288C56.5292 9.01532 56.8199 8.47346 57.1114 7.93013C57.275 7.62507 57.439 7.31956 57.621 7.0247C57.7072 7.0247 57.789 7.02364 57.8678 7.02262C58.0321 7.0205 58.1832 7.01856 58.3332 7.02671C58.6934 7.04681 58.8655 7.21765 58.8735 7.57743C58.8835 8.06182 58.8675 8.54219 58.7774 9.02457C58.6454 9.73206 58.5113 10.4375 58.3353 11.135C58.3278 11.1639 58.3062 11.1888 58.2745 11.2255C58.2555 11.2476 58.2327 11.2739 58.2072 11.3078C58.0381 11.3003 57.8651 11.3065 57.6895 11.3129C57.3499 11.3251 57.0008 11.3377 56.6526 11.2516C56.5866 11.2355 56.5185 11.2194 56.4505 11.2194C56.1365 11.2182 55.822 11.2111 55.5075 11.2039C54.7439 11.1865 53.9806 11.1692 53.2252 11.2375C52.6849 11.2864 52.1478 11.2899 51.6108 11.2935C51.2868 11.2956 50.9627 11.2978 50.6382 11.3099C50.5522 11.3139 50.4641 11.3139 50.3781 11.3099C49.9579 11.2837 49.7518 11.0385 49.8239 10.6225C49.8349 10.5611 49.8509 10.5007 49.8667 10.4411C49.9027 10.3053 49.9377 10.1735 49.9099 10.0436C50.069 9.91551 50.2477 9.85806 50.429 9.79976C50.6147 9.74004 50.8032 9.67943 50.9763 9.54112L50.9803 9.5371Z" fill="#495E57"/>
	<path d="M19.3758 9.87677C19.0596 9.81245 18.7435 9.74813 18.4134 9.6818H18.4114C18.2533 9.25369 18.2273 8.86176 18.2413 8.46178C18.251 8.20488 18.2516 7.94821 18.2522 7.69154C18.2533 7.20521 18.2545 6.71885 18.3173 6.23077C18.3856 5.71378 18.3669 5.18412 18.3483 4.65688C18.3435 4.51999 18.3386 4.38327 18.3353 4.24697C18.3336 4.17024 18.3323 4.09357 18.3309 4.01693C18.3243 3.64587 18.3177 3.27548 18.2713 2.90233C18.2457 2.69655 18.2759 2.47957 18.3063 2.26073C18.3305 2.08628 18.3549 1.91065 18.3513 1.73859C18.5339 1.67572 18.7077 1.61504 18.8793 1.55512C19.037 1.5001 19.1928 1.44571 19.3517 1.39087C19.4098 0.958736 19.4138 0.552732 19.3577 0.144717C19.3279 0.138713 19.3024 0.132147 19.2797 0.126278C19.2416 0.116429 19.211 0.108539 19.1797 0.108539C18.4596 0.106529 17.7401 0.105524 17.0208 0.10452C16.301 0.103514 15.5815 0.102509 14.862 0.100499C14.7359 0.100499 14.6179 0.110548 14.5138 0.257273C14.5138 0.389466 14.4838 0.524006 14.4529 0.662402C14.4081 0.862788 14.3615 1.07126 14.4018 1.29238C14.5178 1.5195 14.7119 1.56372 14.954 1.59588C15.0764 1.61213 15.2009 1.63641 15.3288 1.66138C15.4226 1.67967 15.5182 1.69833 15.6163 1.71447V9.55317C15.4801 9.69973 15.292 9.73991 15.104 9.78006C14.8666 9.83075 14.6296 9.88138 14.4978 10.1461V11.1129C14.6479 11.2676 14.8179 11.3119 15.02 11.3119C16.3566 11.3078 17.6911 11.3098 19.0256 11.3119C19.1517 11.3119 19.2677 11.2998 19.3818 11.1209C19.3591 10.9811 19.395 10.8338 19.4325 10.6802C19.4941 10.4276 19.5599 10.158 19.3758 9.87677Z" fill="#495E57"/>
	<path d="M31.6469 39.1355C31.6468 39.1354 31.647 39.1356 31.6469 39.1355V39.1355Z" fill="#495E57"/>
	<path d="M31.6469 39.1355C31.8069 39.3321 31.9729 39.2377 32.1308 39.1392C32.493 38.9141 32.8991 38.8156 33.3073 38.7533C33.5714 38.7131 33.8355 38.6689 34.0896 38.6026C34.3537 38.5323 34.6118 38.5182 34.8799 38.5202C34.9756 38.5213 35.0719 38.5256 35.1683 38.53C35.4268 38.5417 35.6855 38.5533 35.9304 38.5021C36.2856 38.4294 36.6382 38.4192 36.9925 38.4089C37.0692 38.4067 37.146 38.4045 37.2229 38.4016C37.6471 38.3862 38.0695 38.4202 38.492 38.4543C38.9503 38.4913 39.4088 38.5282 39.8699 38.5021C39.968 38.4961 40.072 38.5222 40.164 38.5544C40.5642 38.6971 40.9764 38.7292 41.3945 38.7272C41.4296 38.7269 41.4649 38.7261 41.5004 38.7254C41.6671 38.722 41.8364 38.7185 41.9948 38.7533C42.467 38.8579 42.9391 38.9383 43.4253 38.9383C43.4378 38.9383 43.4504 38.9381 43.463 38.9379C43.5836 38.9364 43.7063 38.9348 43.7715 39.0749C43.7069 39.2137 43.5876 39.2119 43.467 39.21C43.4531 39.2098 43.4392 39.2096 43.4253 39.2096C43.3884 39.2102 43.3515 39.2108 43.3145 39.2114C42.4651 39.2249 41.6157 39.2385 40.7663 39.2096L40.7452 39.2088C40.4357 39.1969 40.1172 39.1848 39.8159 39.2418C39.4944 39.3021 39.1747 39.3059 38.8533 39.3097C38.8427 39.3098 38.8321 39.31 38.8215 39.3101C38.3693 39.3161 37.9191 39.3201 37.467 39.3222C37.2863 39.3228 37.1049 39.3188 36.9233 39.3149C36.5018 39.3057 36.0796 39.2965 35.6642 39.3443C35.2521 39.3906 34.8438 39.3976 34.4342 39.4045C34.3288 39.4063 34.2233 39.4081 34.1176 39.4106C33.7515 39.4206 33.3833 39.4307 33.0152 39.4307C32.8211 39.4307 32.643 39.4709 32.461 39.5714C32.8051 40.0075 33.1512 40.3874 33.5614 40.713C33.8215 40.918 34.0796 41.1431 34.2617 41.4285C34.4418 41.7119 34.6899 41.8928 34.998 42.0014C35.0778 42.0291 35.1563 42.0595 35.2348 42.0899C35.4631 42.1782 35.6908 42.2664 35.9484 42.2888C36.2025 42.3089 36.4606 42.3933 36.6887 42.5561C37.1248 42.8677 37.627 43.0506 38.1392 43.2033C38.5034 43.3118 38.8675 43.4204 39.1936 43.6274C39.19 43.4588 39.2995 43.4623 39.4068 43.4658C39.4172 43.4661 39.4275 43.4664 39.4377 43.4666C39.9792 43.48 40.5027 43.368 41.0265 43.2558C41.1318 43.2333 41.2371 43.2108 41.3425 43.1892C42.3769 42.9762 43.3713 42.6325 44.3637 42.2767C45.4601 41.8848 46.5046 41.3843 47.4569 40.715C47.7771 40.4919 48.0932 40.2387 48.3193 39.9613C48.3673 39.6859 48.2773 39.4588 48.1932 39.288C47.9931 38.88 47.7751 38.4478 47.2669 38.3112C47.1863 38.2893 47.1107 38.2511 47.0348 38.2127C46.9918 38.191 46.9488 38.1692 46.9047 38.1504C46.4805 37.9675 46.0464 37.8006 45.5922 37.7162C44.9079 37.5916 44.2497 37.3987 43.6114 37.1173C43.516 37.0755 43.4215 37.0309 43.3269 36.9863C43.0347 36.8485 42.7414 36.7102 42.4149 36.651C42.09 36.591 41.7681 36.5165 41.4443 36.4416C41.3015 36.4086 41.1583 36.3754 41.0144 36.3434C41.0112 36.3193 41.0086 36.2941 41.006 36.2686C41.0036 36.2453 41.0012 36.2218 40.9984 36.1987H37.3829C37.3769 36.247 37.3709 36.2952 37.3669 36.3414C36.9468 36.5123 36.5386 36.6691 36.0864 36.7253C35.8703 36.7535 35.6322 36.7917 35.4261 36.9223C34.7079 37.3765 33.9616 37.7685 33.1492 38.0258L33.1465 38.0266C33.0531 38.0566 32.9465 38.0907 32.8831 38.1584C32.6308 38.4273 32.3332 38.6391 32.0358 38.8509C31.9049 38.9442 31.7739 39.0374 31.6469 39.1355Z" fill="#495E57"/>
	<path fill-rule="evenodd" clip-rule="evenodd" d="M30.34 40.0484C30.3195 40.0519 30.2998 40.0552 30.2821 40.0598H30.2841C29.9219 40.496 29.6598 40.9241 29.4898 41.3984C29.4077 41.6215 29.3057 41.8225 29.1516 42.0054C28.7795 42.4476 28.5554 42.9621 28.4253 43.5229C28.3532 43.833 28.2804 44.1431 28.2076 44.4533C28.0563 45.0981 27.905 45.7431 27.7591 46.3891C27.7291 46.5157 27.7331 46.6604 27.7591 46.789C27.7926 46.9495 27.8142 47.1121 27.8358 47.2748C27.8711 47.5399 27.9064 47.8055 27.9932 48.0633C28.0732 48.2985 28.1192 48.5517 28.1332 48.7989C28.1552 49.1648 28.2793 49.4863 28.4774 49.7798C28.6085 49.9736 28.7346 50.1705 28.8607 50.3673C29.1308 50.7889 29.4007 51.2103 29.7199 51.6008C30.13 52.1013 30.5802 52.5254 31.1984 52.7485C31.5126 52.861 31.8047 53.0158 32.0808 53.2107C32.3389 53.3916 32.609 53.5665 32.8931 53.6991C33.6614 54.0549 34.4397 54.3926 35.218 54.7242C35.3741 54.7905 35.5122 54.8689 35.6482 54.9694C36.0224 55.2448 36.3965 55.5201 36.8707 55.6106C37.2008 55.6729 37.4969 55.8216 37.7711 56.0166C38.0992 56.2497 38.4673 56.3924 38.8455 56.5271C39.0596 56.6035 39.2376 56.5693 39.4197 56.4809C39.6164 56.383 39.6903 56.1917 39.7532 56.0292C39.7574 56.0181 39.7616 56.0072 39.7658 55.9965C39.7347 55.8898 39.6976 55.7865 39.6614 55.6856C39.5837 55.4689 39.5098 55.2629 39.5057 55.0558C39.5005 54.7644 39.4693 54.4751 39.4381 54.1861C39.3974 53.8094 39.3567 53.4329 39.3737 53.052C39.3797 52.9014 39.3958 52.7504 39.4118 52.5999C39.4329 52.4009 39.454 52.2025 39.4517 52.0068C39.449 51.7772 39.3732 51.5485 39.2973 51.3195C39.2615 51.2117 39.2258 51.1039 39.1976 50.9958C39.188 50.9572 39.1887 50.916 39.1893 50.8753C39.1895 50.8652 39.1896 50.8551 39.1896 50.8451C39.2076 50.3888 39.1336 49.9486 38.9955 49.5125C38.9035 49.2271 38.8695 48.9276 38.8675 48.6241C38.8635 48.2161 38.7494 47.8342 38.5174 47.4965C38.3753 47.2875 38.2653 47.0624 38.1832 46.8252C37.9271 46.0856 37.4469 45.5147 36.8547 45.0344C36.4365 44.6947 36.0704 44.3128 35.7262 43.9008C35.6816 43.8471 35.6377 43.7926 35.5939 43.7382C35.3586 43.4461 35.1231 43.1538 34.7639 42.9742C34.2497 42.7169 33.8755 42.2868 33.5454 41.8185C33.4793 41.724 33.3973 41.6316 33.3053 41.5632C33.0164 41.3509 32.7674 41.0962 32.5186 40.8418C32.3694 40.6892 32.2203 40.5366 32.0628 40.3935C31.6066 39.9774 31.1124 39.6538 30.4641 40.0136C30.4265 40.0338 30.3817 40.0414 30.34 40.0484ZM31.0412 42.2858C31.127 42.7825 31.217 43.2672 31.3825 43.736C31.7333 44.723 32.1849 45.6666 32.6358 46.6085C32.6889 46.7196 32.7421 46.8307 32.7951 46.9418C32.8921 47.146 32.9829 47.3534 33.0738 47.5608C33.2978 48.0722 33.5221 48.5841 33.8395 49.0502C34.0855 49.4086 34.3142 49.7789 34.543 50.1493C34.5952 50.2339 34.6474 50.3184 34.6998 50.4029C35.3101 51.3877 35.9783 52.3203 36.9487 52.9896C36.9985 53.0236 37.0434 53.0651 37.0904 53.1087C37.191 53.2017 37.3015 53.304 37.4909 53.3615C37.3614 53.1438 37.2374 52.9329 37.1165 52.7272C36.8655 52.3003 36.6276 51.8956 36.3805 51.4983C36.2124 51.2269 36.0644 50.9556 35.9603 50.6521C35.8483 50.3225 35.7122 49.9928 35.5422 49.6893C35.3962 49.4278 35.236 49.174 35.0757 48.9201C34.9417 48.7078 34.8076 48.4954 34.6818 48.2784C34.6277 48.1854 34.5723 48.0929 34.5169 48.0003C34.2897 47.621 34.0619 47.2405 33.9155 46.8172C33.7394 46.3087 33.4733 45.8484 33.1752 45.4022C33.0969 45.2839 33.0153 45.1672 32.9336 45.0504C32.6792 44.6866 32.4239 44.3216 32.2649 43.9048C32.0441 43.3239 31.6315 42.8972 31.2152 42.4667C31.1571 42.4066 31.099 42.3464 31.0412 42.2858Z" fill="#495E57"/>
	<path d="M31.0432 42.2838L31.0403 42.2808L31.0423 42.2788L31.0432 42.2838Z" fill="#F4CE14"/>
	<path d="M31.0432 42.2838C31.1289 42.7825 31.2189 43.2652 31.3844 43.734C31.7243 44.6902 32.1603 45.6042 32.5961 46.5178C32.6632 46.6584 32.7303 46.7991 32.797 46.9398C32.8929 47.1423 32.9828 47.3476 33.0727 47.5528C33.2977 48.0666 33.5226 48.58 33.8414 49.0482C34.1094 49.4387 34.3585 49.8434 34.6069 50.2469C34.6385 50.2983 34.6701 50.3496 34.7017 50.4009C35.312 51.3878 35.9803 52.3184 36.9506 52.9877C37.0004 53.0216 37.0453 53.063 37.0923 53.1063C37.1929 53.1989 37.3034 53.3006 37.4929 53.3595C37.3837 53.1751 37.2783 52.9957 37.1753 52.8202C36.9043 52.3588 36.6491 51.9244 36.3824 51.4963C36.2123 51.227 36.0663 50.9536 35.9622 50.6501C35.8482 50.3205 35.7141 49.9909 35.5441 49.6874C35.3981 49.4258 35.2379 49.172 35.0776 48.9182C34.9436 48.7058 34.8095 48.4934 34.6837 48.2764C34.6296 48.1834 34.5742 48.0909 34.5188 47.9984C34.2916 47.619 34.0638 47.2385 33.9174 46.8152C33.7414 46.3067 33.4753 45.8484 33.1771 45.4002C33.0988 45.282 33.0172 45.1653 32.9355 45.0484C32.6811 44.6847 32.4258 44.3197 32.2668 43.9028C32.046 43.322 31.6334 42.8952 31.2171 42.4647C31.159 42.4046 31.1009 42.3445 31.0432 42.2838Z" fill="#F4CE14"/>
	<path fill-rule="evenodd" clip-rule="evenodd" d="M51.1413 78.2421C51.1466 78.1475 51.152 78.0531 51.2083 77.969L51.2203 77.967C51.1903 77.9469 51.1863 77.9248 51.2143 77.9027C51.2214 77.897 51.2296 77.8933 51.238 77.8895C51.2414 77.8879 51.2449 77.8863 51.2484 77.8846C51.3704 77.0686 51.6545 76.3068 52.0026 75.5671C52.1327 75.2898 52.2287 75.0064 52.2467 74.7069C52.2628 74.4034 52.3228 74.112 52.4228 73.8286C52.3928 73.8085 52.3908 73.7864 52.4188 73.7642C52.4254 73.7603 52.433 73.7571 52.4408 73.7537C52.4447 73.752 52.4488 73.7502 52.4528 73.7482C52.4517 73.6475 52.4803 73.5527 52.5092 73.4571C52.5333 73.3772 52.5576 73.2966 52.5649 73.2115C52.5677 73.1768 52.5706 73.1422 52.5734 73.1075C52.6682 71.9481 52.7632 70.7878 53.2391 69.7223C53.2214 69.6577 53.2037 69.5955 53.1865 69.535C53.1453 69.3902 53.1067 69.2548 53.0771 69.1173C53.0251 68.8862 53.005 68.649 53.1031 68.4259C53.3312 67.9073 53.3412 67.3566 53.3472 66.8059C53.3482 66.7196 53.351 66.6327 53.3538 66.5458C53.3623 66.2786 53.371 66.0105 53.3272 65.7527C53.2652 65.3849 53.2231 65.015 53.2852 64.6553C53.3792 64.1025 53.2652 63.592 53.0671 63.0976C52.849 62.5509 52.777 62.0082 52.963 61.4374C52.9407 61.3754 52.9181 61.3136 52.8954 61.2518C52.7455 60.8426 52.5961 60.4348 52.5509 59.9983L52.4968 59.944C52.5049 59.934 52.5149 59.9259 52.5249 59.9159C52.4406 59.5855 52.3157 59.2699 52.191 58.9548C52.1321 58.8059 52.0732 58.6571 52.0187 58.5069C51.9542 58.3288 51.8815 58.1532 51.8088 57.9777C51.6263 57.5373 51.4439 57.097 51.3924 56.6156C51.3524 56.2498 51.2043 55.9503 51.0063 55.6548C50.9557 55.5805 50.9025 55.5067 50.8491 55.4327C50.6745 55.1907 50.4984 54.9465 50.408 54.674C50.1779 53.9846 49.8478 53.3756 49.3936 52.8108C49.2099 52.5809 49.0771 52.3085 48.9452 52.0379C48.9076 51.9607 48.87 51.8837 48.8314 51.8078C48.6753 51.5003 48.4632 51.2471 48.1791 51.0601C47.925 50.8913 47.727 50.6722 47.5609 50.415C47.4459 50.2353 47.3236 50.0605 47.2012 49.8856C47.1128 49.7591 47.0243 49.6327 46.9386 49.5045C46.8546 49.3778 46.7666 49.2552 46.6405 49.1688C46.2359 48.8884 45.8884 48.5432 45.5407 48.1977C45.2952 47.9538 45.0496 47.7098 44.7838 47.4885C44.1815 46.986 43.5753 46.4815 42.875 46.1198C42.5589 45.9569 42.2688 45.7761 42.0527 45.4927C41.9066 45.2997 41.7226 45.1691 41.4905 45.1047C40.8962 44.9399 40.42 44.5862 39.9579 44.1942C39.8998 44.1452 39.8433 44.0936 39.7866 44.0419C39.609 43.8799 39.4301 43.7169 39.1996 43.6254C38.8754 43.4204 38.5093 43.3099 38.1451 43.2013C37.6329 43.0486 37.1327 42.8677 36.6946 42.5541C36.4665 42.3934 36.2084 42.3089 35.9543 42.2868C35.6975 42.266 35.4705 42.1776 35.2429 42.0891C35.1637 42.0583 35.0845 42.0274 35.0039 41.9994C34.6958 41.8909 34.4477 41.71 34.2676 41.4266C34.0855 41.1432 33.8274 40.9181 33.5673 40.711C33.1572 40.3874 32.811 40.0056 32.4669 39.5694C32.6489 39.4689 32.827 39.4287 33.0211 39.4287C33.3137 39.4271 33.6076 39.4204 33.9018 39.4136C33.9757 39.4119 34.0496 39.4102 34.1235 39.4086C34.2292 39.4061 34.3347 39.4044 34.4401 39.4026C34.8497 39.3956 35.258 39.3886 35.6702 39.3423C36.0782 39.2967 36.4918 39.3052 36.906 39.3137C37.095 39.3176 37.2841 39.3214 37.4729 39.3202L38.8274 39.3081L38.8588 39.3077C39.1802 39.3039 39.4982 39.3001 39.8218 39.2398C40.1231 39.1828 40.4416 39.195 40.7511 39.2068L40.7722 39.2076C41.56 39.2344 42.3479 39.2231 43.1358 39.2118C43.2343 39.2104 43.3328 39.209 43.4312 39.2076C43.4471 39.2074 43.4631 39.2075 43.4791 39.2076C43.5964 39.2084 43.714 39.2092 43.7774 39.073C43.7122 38.9328 43.5895 38.9344 43.4689 38.936C43.4563 38.9361 43.4437 38.9363 43.4312 38.9363C42.945 38.9383 42.4729 38.8559 42.0007 38.7514C41.8485 38.7183 41.6889 38.721 41.5306 38.7237C41.487 38.7245 41.4436 38.7252 41.4004 38.7252C40.9803 38.7272 40.5681 38.6951 40.1699 38.5524C40.0779 38.5182 39.9719 38.4941 39.8758 38.5001C39.4158 38.5263 38.9575 38.4893 38.4991 38.4524C38.0761 38.4183 37.6531 38.3842 37.2288 38.3996C37.1519 38.4025 37.0751 38.4047 36.9984 38.4069C36.6441 38.4172 36.2915 38.4274 35.9363 38.5001C35.694 38.5491 35.4394 38.5382 35.1857 38.5274C35.0853 38.5231 34.9851 38.5188 34.8858 38.5182C34.6197 38.5162 34.3596 38.5323 34.0955 38.6006C33.8414 38.667 33.5773 38.7112 33.3132 38.7514C32.9051 38.8137 32.4969 38.9122 32.1367 39.1373C31.9787 39.2358 31.8126 39.3282 31.6526 39.1333C31.5193 39.148 31.4121 39.0877 31.3069 39.0284C31.24 38.9907 31.1739 38.9535 31.1023 38.9363C30.8484 38.9989 30.604 39.0843 30.3601 39.1695C30.0563 39.2756 29.7533 39.3815 29.4337 39.4428C29.1035 39.5071 28.7874 39.7161 28.5433 39.9794C28.2572 40.287 27.9331 40.5523 27.5929 40.7955C27.4649 40.8859 27.3728 40.9844 27.3168 41.1371C27.1728 41.5311 26.9747 41.9009 26.7206 42.2366C26.5945 42.4034 26.5345 42.5823 26.5445 42.7973C26.5856 43.6197 26.4647 44.4258 26.3437 45.2324C26.3056 45.4864 26.2675 45.7405 26.2344 45.9951C26.2104 46.174 26.1304 46.3167 26.0243 46.4433C25.7602 46.7609 25.6182 47.1267 25.5401 47.5267C25.5365 47.5454 25.5331 47.5644 25.5296 47.5835C25.5056 47.7139 25.4807 47.8501 25.4161 47.9588C24.9312 48.7684 24.6489 49.6524 24.3656 50.5396C24.3134 50.7031 24.2611 50.8667 24.2076 51.03C24.0035 51.6511 23.7034 52.2259 23.2312 52.7083C22.823 53.1223 22.645 53.671 22.5249 54.2338C22.3809 54.9031 22.2248 55.5684 21.7786 56.1191C21.6686 56.2538 21.6306 56.4106 21.6026 56.5814C21.5405 56.9774 21.4585 57.3713 21.2284 57.713C21.0944 57.91 21.0743 58.127 21.1344 58.3401C21.2504 58.7582 21.2244 59.1682 21.1384 59.5842C21.1081 59.7281 21.0986 59.8757 21.0898 60.0134C21.0858 60.0758 21.082 60.1362 21.0763 60.1932C21.0036 60.2551 20.9604 60.2348 20.9193 60.2155C20.9163 60.2141 20.9133 60.2127 20.9103 60.2113V60.7158C20.9583 60.7017 20.9963 60.7158 20.9963 60.7661C20.9963 60.8163 20.9563 60.8304 20.9103 60.8163V61.7248C20.9162 61.732 20.924 61.739 20.9317 61.7461C20.9609 61.7725 20.9893 61.7983 20.9103 61.8253V61.9258C20.9583 61.9137 20.9943 61.9298 20.9943 61.978C20.9943 62.0283 20.9563 62.0424 20.9103 62.0283V62.3318C20.9319 62.3209 20.9547 62.3113 20.9769 62.3019C20.9834 62.2991 20.9899 62.2964 20.9963 62.2936C21.0583 62.2936 21.0883 62.3338 21.1004 62.382C21.1054 62.402 21.1104 62.422 21.1155 62.442C21.253 62.9868 21.3906 63.5321 21.1764 64.0905C21.1084 64.2694 21.1004 64.4382 21.1504 64.6251C21.3304 65.3025 21.4105 65.9959 21.3985 66.6974C21.3945 66.9526 21.4285 67.1898 21.5465 67.4209C21.7706 67.8551 21.8687 68.3254 21.9147 68.8078C21.9227 68.8158 21.9307 68.8244 21.9387 68.8329C21.9467 68.8414 21.9547 68.85 21.9627 68.858C21.9577 68.861 21.9527 68.8646 21.9477 68.8681C21.9427 68.8716 21.9377 68.8751 21.9327 68.8781C21.984 69.048 22.0155 69.2224 22.047 69.3968C22.0904 69.637 22.1337 69.877 22.2288 70.1042C22.2748 70.1203 22.3028 70.1464 22.2868 70.2006C22.3022 70.2403 22.3181 70.2797 22.3339 70.3192C22.4251 70.5461 22.5161 70.7727 22.5229 71.0227C22.5289 71.0295 22.5355 71.036 22.5421 71.0425C22.5531 71.0534 22.5642 71.0644 22.5729 71.077C22.5745 71.0785 22.5652 71.0898 22.5572 71.0995C22.5549 71.1022 22.5527 71.1049 22.5509 71.1071C22.5611 71.1434 22.5715 71.1796 22.5819 71.2158C22.6491 71.4503 22.7161 71.684 22.723 71.9312C22.741 71.9493 22.759 71.9674 22.773 71.9875C22.773 71.9875 22.7671 71.9943 22.7592 72.0018C22.755 72.0059 22.7505 72.0101 22.747 72.0136C22.7916 72.0822 22.8001 72.1585 22.8085 72.2347C22.813 72.2746 22.8174 72.3146 22.827 72.3533C22.9511 72.8558 23.0951 73.3522 23.4413 73.7582C23.4438 73.7612 23.4464 73.7642 23.4489 73.7672C23.4686 73.7904 23.4887 73.8139 23.4993 73.8406C23.7986 74.5621 24.2703 75.1646 24.7421 75.7674C24.9801 76.0713 25.2181 76.3753 25.4341 76.6947C25.5661 76.8897 25.6802 77.0887 25.7702 77.3057C26.1244 78.1479 26.6426 78.8775 27.3528 79.4523C27.6169 79.6654 27.845 79.8965 28.0071 80.196C28.0951 80.3568 28.1892 80.5196 28.3372 80.6342C28.8447 81.0271 29.2385 81.5256 29.6312 82.0227C29.7046 82.1156 29.7778 82.2084 29.8518 82.3004C30.184 82.7144 30.5741 83.0461 30.9983 83.3375C31.7086 83.8239 32.3388 84.3887 32.877 85.06C32.9846 85.193 33.1194 85.2874 33.2545 85.382C33.2828 85.4019 33.3111 85.4217 33.3392 85.4419C34.0521 85.9542 34.8594 86.2649 35.6671 86.5757C35.807 86.6296 35.9469 86.6834 36.0863 86.7383C37.0327 87.1101 37.9851 87.4619 38.9935 87.6126C39.2716 87.6528 39.4977 87.7835 39.7018 87.9543C39.9799 88.1855 40.298 88.298 40.6461 88.3824C41.3084 88.5432 41.8806 88.8789 42.2948 89.4336C42.4729 89.6688 42.6669 89.8537 42.937 89.9662C43.3699 90.1461 43.7154 90.4478 44.0609 90.7496C44.2056 90.876 44.3504 91.0024 44.5017 91.1199C44.5657 91.1682 44.5597 91.2325 44.5177 91.2948H45.6221C45.6081 91.2486 45.6221 91.2084 45.6721 91.2084C45.7222 91.2084 45.7362 91.2486 45.7222 91.2948H46.3244C46.2864 91.2325 46.2764 91.1642 46.3524 91.13C46.4004 91.1087 46.4507 91.0923 46.5007 91.0759C46.6067 91.0411 46.711 91.0069 46.7886 90.929C46.8255 90.8294 46.8598 90.7298 46.8938 90.631C46.9704 90.4087 47.0456 90.1903 47.1467 89.9843C47.2588 89.7552 47.2848 89.5301 47.2127 89.305C47.0347 88.7502 47.1307 88.2096 47.2648 87.6729C47.3728 87.2368 47.4889 86.7986 47.6529 86.3805C47.6681 86.3416 47.6831 86.3025 47.6981 86.2633C47.8676 85.8215 48.0395 85.3733 48.4512 85.0761C48.5893 84.9776 48.6713 84.8309 48.7193 84.6641C48.7478 84.5635 48.7801 84.4634 48.8123 84.3632C48.8775 84.161 48.9427 83.9585 48.9774 83.7516C49.0975 83.04 49.4396 82.4371 49.8258 81.8482L49.8286 81.844C49.9837 81.6102 50.1403 81.3742 50.2139 81.0965C50.1819 81.0804 50.1759 81.0583 50.2019 81.0321C50.2075 81.0265 50.216 81.0229 50.2247 81.0191C50.2285 81.0175 50.2323 81.0159 50.2359 81.014C50.2341 80.6882 50.3488 80.3937 50.4641 80.0977C50.4761 80.0668 50.4882 80.036 50.5 80.0051C50.5617 79.8442 50.6265 79.6847 50.6914 79.5251C50.8452 79.1463 50.9991 78.7676 51.1103 78.373C51.0803 78.3529 51.0763 78.3308 51.1043 78.3087C51.1114 78.303 51.1195 78.2993 51.1279 78.2955C51.1313 78.2939 51.1348 78.2923 51.1383 78.2906C51.1395 78.2744 51.1404 78.2582 51.1413 78.2421ZM29.4877 41.3984C29.6578 40.9221 29.9199 40.496 30.282 40.0598H30.28C30.2978 40.0552 30.3175 40.0519 30.3379 40.0484C30.3796 40.0414 30.4245 40.0338 30.4621 40.0136C31.1103 39.6538 31.6045 39.9774 32.0607 40.3935C32.2183 40.5367 32.3674 40.6892 32.5166 40.8418C32.7653 41.0962 33.0143 41.3509 33.3032 41.5633C33.3952 41.6316 33.4773 41.724 33.5433 41.8185C33.8734 42.2868 34.2476 42.7169 34.7618 42.9742C35.1174 43.152 35.3504 43.4404 35.5841 43.7295C35.6304 43.7868 35.6768 43.8442 35.7242 43.9008C36.0683 44.3128 36.4345 44.6947 36.8526 45.0344C37.4449 45.5148 37.925 46.0876 38.1812 46.8252C38.2632 47.0624 38.3732 47.2875 38.5153 47.4965C38.7474 47.8362 38.8614 48.2181 38.8654 48.6241C38.8674 48.9296 38.9014 49.2271 38.9935 49.5125C39.1315 49.9487 39.2056 50.3888 39.1876 50.8451C39.1856 50.8953 39.1835 50.9476 39.1956 50.9958C39.2235 51.1008 39.2583 51.2056 39.293 51.3103C39.37 51.5424 39.4469 51.7741 39.4497 52.0068C39.452 52.2066 39.4306 52.4092 39.4092 52.6125C39.3938 52.7588 39.3783 52.9056 39.3716 53.052C39.3546 53.4329 39.3953 53.8094 39.436 54.1861C39.4672 54.4752 39.4985 54.7644 39.5037 55.0559C39.5078 55.2629 39.5817 55.469 39.6594 55.6856C39.6956 55.7866 39.7326 55.8898 39.7638 55.9965C39.761 56.0039 39.7582 56.0114 39.7554 56.019C39.6934 56.1853 39.6205 56.3809 39.4176 56.4809C39.2376 56.5714 39.0575 56.6035 38.8434 56.5271C38.4673 56.3925 38.0971 56.2498 37.769 56.0166C37.4949 55.8237 37.1988 55.6729 36.8686 55.6106C36.398 55.5228 36.026 55.249 35.6547 54.9757L35.6461 54.9694C35.5101 54.8689 35.372 54.7906 35.216 54.7242C34.4377 54.3926 33.6594 54.0549 32.891 53.6992C32.6049 53.5685 32.3368 53.3917 32.0787 53.2108C31.8026 53.0158 31.5105 52.861 31.1964 52.7485C30.5801 52.5254 30.1279 52.1033 29.7178 51.6008C29.3929 51.205 29.1196 50.7776 28.8464 50.3503C28.7242 50.1591 28.6021 49.968 28.4753 49.7798C28.2772 49.4864 28.1532 49.1648 28.1312 48.799C28.1151 48.5497 28.0711 48.2985 27.9911 48.0633C27.9029 47.805 27.8679 47.5389 27.833 47.2732C27.8117 47.111 27.7904 46.949 27.757 46.7891C27.731 46.6604 27.729 46.5157 27.757 46.3891C27.9029 45.7431 28.0543 45.0981 28.2056 44.4533C28.2784 44.1432 28.3511 43.833 28.4233 43.5229C28.5533 42.9622 28.7774 42.4456 29.1496 42.0054C29.3036 41.8225 29.4077 41.6236 29.4877 41.3984Z" fill="#F4CE14"/>
</svg>
