<svg width="204" height="56" viewBox="0 0 204 56" fill="none" xmlns="http://www.w3.org/2000/svg">
	<path fill-rule="evenodd" clip-rule="evenodd" d="M185.306 24.8779C184.505 24.4512 183.643 24.161 182.656 24.2092L182.654 24.2102C182.113 24.161 181.535 24.281 180.969 24.4246C180.536 24.5343 180.084 24.6697 179.714 24.9107C179.282 25.1938 178.872 25.5425 178.547 25.96L178.507 26.0114C178.15 26.4697 177.795 26.925 177.658 27.5261C177.613 27.7224 177.556 27.9151 177.5 28.1078C177.388 28.4919 177.275 28.8763 177.253 29.2902C177.248 29.3944 177.232 29.5002 177.216 29.6063C177.186 29.804 177.155 30.003 177.194 30.1938C177.23 30.3676 177.251 30.5438 177.272 30.7201L177.272 30.7213C177.311 31.0437 177.35 31.3673 177.476 31.6759C177.579 31.9243 177.646 32.1879 177.714 32.4508C177.734 32.5297 177.754 32.6088 177.776 32.6871L177.779 32.7016L177.786 32.7289C177.808 32.8121 177.828 32.8916 177.882 32.9671C178.351 33.6133 178.907 34.1774 179.511 34.6892C179.883 35.0051 180.322 35.2748 180.801 35.3497C180.919 35.3682 181.036 35.3883 181.154 35.4083C181.752 35.5103 182.351 35.6124 182.981 35.5138C183.598 35.4184 184.193 35.2974 184.774 35.0789C185.399 34.8441 185.962 34.48 186.408 34.0071C186.948 33.4338 187.349 32.7425 187.582 31.9671C187.627 31.8174 187.66 31.6759 187.664 31.522C187.669 31.3866 187.677 31.2502 187.696 31.1169C187.712 31.0054 187.729 30.8942 187.746 30.783C187.805 30.395 187.865 30.0077 187.874 29.6123C187.877 29.4817 187.847 29.3617 187.816 29.2419C187.793 29.151 187.771 29.0602 187.762 28.9651C187.707 28.3251 187.558 27.7097 187.279 27.123C187.148 26.8483 186.972 26.6077 186.796 26.3674C186.694 26.2282 186.592 26.0891 186.499 25.9435C186.2 25.4748 185.771 25.1251 185.306 24.8779ZM183.763 33.5446C183.017 33.8892 182.369 33.7035 181.641 33.4635C181.592 33.4254 181.543 33.3795 181.49 33.3309C181.397 33.2447 181.294 33.1498 181.172 33.0738C180.785 32.833 180.641 32.416 180.504 32.019C180.488 31.973 180.472 31.9272 180.456 31.882C180.249 31.2974 180.088 30.6912 180.128 30.0512C180.144 29.807 180.14 29.562 180.136 29.317C180.134 29.1689 180.132 29.0208 180.134 28.8728C180.143 28.1876 180.307 27.5364 180.624 26.9323C180.973 26.2687 181.58 25.9507 182.282 25.9723C182.844 25.9887 183.378 26.2246 183.82 26.6348C184.221 27.0082 184.42 27.4841 184.613 27.9733C184.839 28.5466 184.95 29.1364 184.919 29.7569C184.901 30.1063 184.908 30.4565 184.916 30.8068L184.92 30.9866C184.938 31.92 184.611 32.7046 183.94 33.3466C183.873 33.4104 183.814 33.4822 183.783 33.5207C183.774 33.5316 183.767 33.54 183.763 33.5446Z" fill="#495E57"/>
	<path d="M203.538 25.641C203.39 25.6777 203.249 25.7356 203.108 25.7938C202.925 25.8689 202.741 25.9446 202.537 25.9764V35C202.477 35.2051 202.374 35.2902 202.241 35.3753H200.766C200.509 35.2285 200.34 34.9842 200.171 34.7406C200.119 34.6661 200.067 34.5916 200.013 34.52C199.216 33.4687 198.456 32.3914 197.695 31.3135L197.499 31.0359C197.224 30.6451 196.931 30.2653 196.638 29.8853L196.638 29.8845L196.636 29.8827C196.456 29.6482 196.275 29.4136 196.098 29.1764C196.059 29.1235 196.012 29.0768 195.963 29.0279C195.937 29.0019 195.91 28.9752 195.883 28.9466C195.786 29.32 195.752 32.3784 195.826 33.6841C195.988 33.8261 196.199 33.8527 196.41 33.8793C196.677 33.9129 196.944 33.9465 197.112 34.2112C197.151 34.4789 197.096 34.7264 197.043 34.9681C197.018 35.079 196.994 35.1896 196.979 35.2994C196.597 35.4092 194.015 35.4389 192.885 35.3528C192.712 35.1538 192.582 34.9456 192.705 34.6369C192.746 34.5344 192.751 34.4172 192.757 34.2957C192.76 34.2384 192.763 34.1802 192.769 34.122C192.906 33.9951 193.082 33.9456 193.261 33.8954C193.436 33.8461 193.614 33.7961 193.76 33.6717V26.1282C193.613 26.0021 193.43 25.9468 193.243 25.8905C193.043 25.83 192.839 25.7683 192.67 25.6164C192.668 25.5758 192.665 25.5351 192.662 25.4943C192.637 25.1453 192.611 24.7875 192.734 24.4092C192.968 24.4092 193.199 24.409 193.427 24.4087C193.874 24.4083 194.31 24.4078 194.747 24.4092C194.771 24.4092 194.795 24.4093 194.819 24.4095C195.047 24.411 195.275 24.4125 195.497 24.28C195.8 24.5388 196.002 24.8667 196.204 25.1932C196.366 25.4566 196.528 25.7191 196.742 25.9435C197.061 26.278 197.331 26.6594 197.601 27.0411C197.732 27.226 197.863 27.411 197.999 27.5907C198.18 27.8292 198.341 28.0816 198.503 28.334C198.714 28.6647 198.925 28.9954 199.181 29.2943C199.379 29.5264 199.562 29.7701 199.747 30.0159L199.748 30.0175C199.98 30.3263 200.214 30.6382 200.484 30.9343C200.484 30.6806 200.486 30.4269 200.487 30.1733C200.49 29.5987 200.494 29.0245 200.48 28.4502C200.474 28.1991 200.481 27.9472 200.488 27.6956C200.503 27.1332 200.518 26.5723 200.391 26.0246C200.238 25.9021 200.062 25.8623 199.884 25.8223C199.723 25.7859 199.561 25.7494 199.415 25.6502C199.342 25.4428 199.352 25.2232 199.362 25.0047C199.368 24.8774 199.374 24.7504 199.364 24.6266C199.416 24.4717 199.525 24.3928 199.668 24.3087C199.838 24.32 200.011 24.3206 200.185 24.3213C200.502 24.3226 200.826 24.3239 201.153 24.3887C201.424 24.4426 201.708 24.4302 201.992 24.4178C202.118 24.4123 202.245 24.4068 202.37 24.4071H203.539V25.6379L203.538 25.641Z" fill="#495E57"/>
	<path d="M171.516 33.7589C171.638 33.816 171.772 33.8388 171.906 33.8617C172.159 33.9046 172.412 33.9477 172.584 34.2174C172.625 34.4001 172.582 34.5826 172.539 34.7685C172.501 34.9343 172.461 35.1029 172.48 35.2769C172.453 35.2914 172.429 35.3076 172.406 35.3228C172.361 35.3527 172.323 35.3784 172.284 35.3784C170.826 35.3815 169.369 35.3805 167.91 35.3723C167.874 35.3723 167.837 35.3412 167.796 35.3069C167.776 35.2897 167.755 35.2717 167.732 35.2564V34.1948C167.87 33.9701 168.103 33.9108 168.348 33.8483C168.515 33.8059 168.687 33.7619 168.839 33.6635C168.822 33.3536 168.824 33.041 168.827 32.7261C168.83 32.2223 168.834 31.712 168.758 31.1989C168.662 30.5507 168.578 29.8882 168.632 29.2215C168.655 28.9353 168.636 28.6451 168.564 28.3435C168.44 28.6623 168.317 28.9815 168.194 29.3007L168.194 29.3017L168.194 29.3029L168.193 29.3043L168.192 29.3062L168.192 29.3074L168.191 29.3084C167.901 30.0628 167.611 30.8175 167.312 31.5682C167.103 32.0937 166.924 32.6308 166.748 33.1619C166.563 33.716 166.381 34.2641 166.169 34.7856C165.608 34.9943 165.082 34.9812 164.564 34.9682C164.427 34.9648 164.292 34.9614 164.156 34.962C163.669 33.8574 163.293 32.76 162.933 31.6605C162.772 31.1699 162.593 30.6867 162.413 30.2C162.194 29.6091 161.973 29.0131 161.781 28.3928C161.665 28.6415 161.638 28.8612 161.612 29.0811C161.608 29.1086 161.605 29.1365 161.601 29.1641C161.536 29.6925 161.532 30.2229 161.529 30.7526C161.526 31.1747 161.523 31.5965 161.489 32.0164C161.448 32.5066 161.41 32.9948 161.402 33.4861C161.402 33.494 161.402 33.502 161.401 33.51L161.4 33.5338C161.395 33.6192 161.39 33.7106 161.463 33.8184C161.802 33.8266 162.158 33.9005 162.503 33.9825C162.702 34.2142 162.653 34.4757 162.61 34.7103C162.606 34.733 162.602 34.7563 162.598 34.7784L162.591 34.8179C162.557 35.0239 162.515 35.2751 162.198 35.3743H158.533C158.413 35.3251 158.329 35.2215 158.26 35.0964V34.2359C158.405 33.9832 158.638 33.918 158.885 33.8488C159.048 33.8031 159.218 33.7556 159.373 33.6512C159.397 33.6241 159.39 33.5621 159.382 33.4909C159.377 33.4516 159.373 33.4096 159.373 33.3692C159.37 32.7723 159.439 32.1821 159.508 31.591C159.525 31.4436 159.542 31.2962 159.558 31.1487C159.601 30.7512 159.59 30.3469 159.578 29.944C159.575 29.8335 159.572 29.7223 159.57 29.6123C159.563 29.1945 159.628 28.787 159.694 28.3791C159.711 28.2713 159.728 28.1634 159.744 28.0553C159.768 27.8945 159.769 27.7298 159.769 27.5651C159.77 27.4736 159.77 27.3821 159.775 27.2912C159.779 27.2028 159.778 27.114 159.776 27.0252C159.773 26.7925 159.77 26.5597 159.865 26.3333C159.902 26.2471 159.896 26.1292 159.786 26.0092C159.641 25.932 159.471 25.9067 159.295 25.8804C159.084 25.849 158.865 25.8162 158.667 25.6923C158.666 25.6454 158.664 25.5987 158.662 25.5521C158.646 25.1881 158.631 24.8293 158.793 24.4656C158.921 24.3559 159.089 24.3087 159.284 24.3118C159.465 24.3146 159.648 24.309 159.83 24.3034C160.175 24.2928 160.521 24.2822 160.859 24.3292C161.293 24.3888 161.727 24.3928 162.153 24.3967C162.387 24.3989 162.618 24.401 162.845 24.4123C163.007 24.4934 163.055 24.6267 163.101 24.7555C163.112 24.7862 163.123 24.8167 163.135 24.8461C163.422 25.5285 163.656 26.2301 163.889 26.932C163.975 27.1881 164.06 27.4442 164.148 27.6994C164.465 28.6217 164.776 29.5468 165.086 30.4717L165.277 31.042C165.315 31.1538 165.357 31.2584 165.467 31.3887C165.859 30.2492 166.248 29.1161 166.637 27.9866C167.041 26.8114 167.443 25.6402 167.846 24.4697C168.012 24.321 168.209 24.3128 168.417 24.3128C169.256 24.3159 170.095 24.3155 170.936 24.3151L171.777 24.3148C171.909 24.36 172.006 24.4502 172.074 24.5641C172.129 24.7779 172.083 24.9769 172.037 25.1746C172.003 25.321 171.969 25.4669 171.977 25.6174C171.833 25.7135 171.671 25.7554 171.51 25.7974C171.322 25.8464 171.133 25.8954 170.97 26.0307C170.993 26.2951 170.993 26.5612 170.992 26.8294V26.8304C170.992 27.1976 170.991 27.5686 171.05 27.9435C171.14 28.523 171.213 29.1159 171.189 29.7159C171.159 30.4906 171.263 31.2623 171.366 32.0299L171.367 32.0379C171.393 32.2225 171.391 32.4143 171.378 32.601C171.361 32.8775 171.409 33.1439 171.459 33.413L171.459 33.4141L171.459 33.4151C171.48 33.5285 171.501 33.6425 171.517 33.7579L171.516 33.7589Z" fill="#495E57"/>
	<path d="M109.816 34.24C109.948 33.9709 110.19 33.9205 110.432 33.87C110.532 33.8493 110.631 33.8286 110.723 33.7928C110.907 33.6082 110.928 33.3785 110.926 33.1333C110.925 32.8414 110.931 32.5488 110.938 32.2561L110.938 32.2551C110.951 31.6577 110.964 31.0601 110.908 30.4697C110.829 29.6255 110.834 28.7813 110.839 27.9337C110.843 27.2943 110.847 26.653 110.814 26.0082C110.664 25.9227 110.495 25.8844 110.319 25.8448C110.133 25.8026 109.939 25.759 109.755 25.6554C109.691 25.458 109.736 25.2621 109.78 25.0701C109.819 24.9009 109.857 24.7348 109.819 24.5733C109.9 24.4475 110.007 24.4046 110.109 24.3632C110.15 24.3466 110.191 24.3302 110.229 24.3087C110.271 24.3189 110.313 24.3317 110.354 24.3445C110.442 24.3716 110.529 24.3986 110.617 24.4C110.782 24.4024 110.948 24.4079 111.114 24.4133C111.595 24.4292 112.076 24.4451 112.548 24.3856C113.054 24.3221 113.558 24.2821 114.056 24.3272C114.162 24.3368 114.269 24.3524 114.376 24.368C114.656 24.4088 114.936 24.4496 115.205 24.3836C115.511 24.3087 115.817 24.2749 116.104 24.3241C116.571 24.4047 117.039 24.4029 117.522 24.4011C117.752 24.4002 117.986 24.3993 118.224 24.4072C118.423 25.0236 118.533 25.6697 118.549 26.3149C118.551 26.4213 118.56 26.5293 118.568 26.6383C118.599 27.0512 118.632 27.4768 118.36 27.8728C117.925 27.9159 117.492 27.9128 117.033 27.8739C116.796 27.3118 116.563 26.7569 116.321 26.1795H113.488C113.634 26.6606 113.581 27.1391 113.529 27.6224C113.486 28.0139 113.443 28.4087 113.504 28.8103H116.83C116.95 28.9241 116.993 29.0328 117.039 29.1774C116.923 29.3642 116.928 29.5836 116.933 29.8084C116.939 30.1044 116.946 30.4097 116.677 30.6615H113.609C113.595 30.9593 113.569 31.2543 113.544 31.5487C113.485 32.2207 113.427 32.8898 113.509 33.5815C114.055 33.6934 114.592 33.6429 115.129 33.5923C115.572 33.5506 116.014 33.5088 116.463 33.558L117.441 31.6133H118.607L118.632 31.6365C118.702 31.7002 118.778 31.7692 118.841 31.8277C118.98 33.0728 118.697 34.2256 118.328 35.3785C115.535 35.3785 112.774 35.3785 110.014 35.3744C109.977 35.3744 109.939 35.3457 109.894 35.3109C109.87 35.293 109.845 35.2735 109.816 35.2554V34.24Z" fill="#495E57"/>
	<path d="M145.294 25.8902C145.432 25.9182 145.568 25.9461 145.695 25.998H145.696C145.746 26.4852 145.749 33.0832 145.699 33.7016C145.575 33.8008 145.415 33.8341 145.253 33.8678C145.006 33.9191 144.755 33.9713 144.619 34.2585C144.633 34.3731 144.625 34.4924 144.618 34.6126C144.601 34.8714 144.584 35.1345 144.781 35.3642C146.251 35.4503 152.763 35.4134 153.188 35.3119C153.68 34.195 153.693 33.0042 153.665 31.7652L153.572 31.7412C153.176 31.6386 152.806 31.543 152.409 31.6134C152.303 31.6698 152.207 31.7498 152.16 31.8596C152.093 32.0189 152.013 32.1722 151.934 32.3255C151.819 32.5472 151.704 32.7688 151.626 33.0083C151.557 33.2185 151.464 33.4216 151.223 33.5478C151.113 33.5478 150.998 33.5405 150.881 33.5331C150.616 33.5163 150.341 33.4989 150.087 33.5652C149.649 33.6793 149.236 33.6201 148.824 33.5611C148.687 33.5415 148.551 33.522 148.414 33.5088C148.337 32.7519 148.358 31.0719 148.454 30.6647H151.445C151.59 30.5734 151.678 30.4944 151.739 30.3611C151.706 30.1531 151.748 29.9441 151.79 29.7347C151.842 29.4734 151.894 29.2117 151.802 28.9508C151.693 28.8057 151.559 28.8104 151.43 28.8149C151.408 28.8157 151.385 28.8165 151.363 28.8165C151.119 28.8159 150.874 28.8169 150.629 28.8179C150.433 28.8188 150.237 28.8196 150.041 28.8196H148.399C148.25 28.322 148.267 27.8311 148.284 27.3464C148.293 27.1 148.301 26.8547 148.288 26.6114C148.278 26.4339 148.338 26.2821 148.459 26.1744H151.124C151.24 26.3901 151.334 26.6148 151.428 26.8382C151.583 27.2066 151.737 27.5715 151.979 27.8862H153.113C153.131 27.87 153.149 27.8546 153.166 27.8397C153.203 27.8076 153.238 27.7773 153.27 27.7437C153.293 27.7192 153.311 27.6911 153.331 27.6615C153.342 27.6464 153.352 27.631 153.363 27.6155C153.364 27.491 153.366 27.3664 153.368 27.2417V27.2406C153.383 26.2885 153.398 25.3334 153.02 24.4134C152.807 24.4054 152.597 24.401 152.389 24.3966C151.93 24.387 151.48 24.3776 151.03 24.3303C150.468 24.2708 149.893 24.3057 149.318 24.3878C148.872 24.4509 148.414 24.4035 147.957 24.3561C147.857 24.3457 147.757 24.3354 147.658 24.3262C146.766 24.2431 145.871 24.3309 144.98 24.4182L144.883 24.4278C144.864 24.4298 144.846 24.4445 144.826 24.4604C144.816 24.4689 144.805 24.4777 144.793 24.4852C144.59 24.8349 144.592 25.2175 144.626 25.6247C144.823 25.7941 145.06 25.8424 145.294 25.8902Z" fill="#495E57"/>
	<path d="M82.5735 24.4052C83.1623 24.4052 83.7458 24.4077 84.3256 24.4103C85.7618 24.4165 87.1747 24.4227 88.587 24.3898C88.9157 24.3821 89.2446 24.3673 89.5736 24.3525C90.0351 24.3318 90.497 24.311 90.9593 24.3098C91.2015 24.3098 91.4304 24.3303 91.6482 24.519C91.665 24.5977 91.6867 24.6788 91.7091 24.7625C91.744 24.8926 91.7806 25.0293 91.8029 25.1734C91.9242 25.941 91.9071 26.7109 91.8901 27.4804C91.8868 27.6278 91.8836 27.7758 91.8813 27.9231C91.8806 27.9832 91.8403 28.0423 91.7985 28.1036C91.7782 28.1334 91.7575 28.1637 91.7408 28.1949H90.773C90.5698 28.1201 90.4829 27.9423 90.3971 27.7667L90.3863 27.7447C90.2096 27.385 90.0343 27.0254 89.8604 26.6687L89.6139 26.1631H88.3774C88.294 26.6459 88.3423 27.1243 88.3905 27.602C88.427 27.9646 88.4636 28.327 88.4425 28.6903C88.4217 29.0437 88.4173 29.3974 88.4129 29.7515C88.407 30.2289 88.4011 30.707 88.355 31.1857C88.3157 31.5905 88.3531 31.9962 88.3903 32.4011C88.4304 32.8366 88.4704 33.2711 88.415 33.7026C88.6176 33.8306 88.836 33.8607 89.0455 33.8896C89.2558 33.9187 89.4573 33.9465 89.625 34.0708C89.6932 34.759 89.682 34.8698 89.508 35.2606C88.7448 35.4298 87.9632 35.439 87.1775 35.3129C87.0861 35.298 87.002 35.3226 86.9167 35.3475C86.8435 35.3689 86.7694 35.3906 86.689 35.3877C86.1985 35.3693 85.7059 35.3744 85.2144 35.3847C84.9874 35.3898 84.791 35.3129 84.5803 35.2236V34.2042C84.7322 33.9669 84.98 33.9159 85.2357 33.8633C85.4221 33.825 85.6126 33.7858 85.7731 33.6729V26.1857H84.5193C84.3818 26.3947 84.282 26.6464 84.1805 26.9023C84.1476 26.9853 84.1143 27.0693 84.0796 27.1518C84.0349 27.2592 83.9952 27.3687 83.9553 27.4786C83.8691 27.7161 83.7822 27.9556 83.6431 28.1785C83.4313 28.2185 83.2211 28.2117 83.0173 28.2051C82.892 28.2011 82.7691 28.1971 82.6498 28.2042C82.5165 28.1457 82.4279 28.0698 82.3384 27.9344C82.351 27.7307 82.3163 27.5232 82.281 27.3124C82.2368 27.0486 82.1918 26.7797 82.2376 26.5067C82.2774 26.2705 82.2962 26.0305 82.3152 25.7893C82.3515 25.3267 82.3882 24.8595 82.5735 24.4052Z" fill="#495E57"/>
	<path d="M75.5158 35.3857C75.645 35.3262 75.7254 35.24 75.8262 35.0883H75.8252C75.7957 34.8031 75.8303 34.519 75.9259 34.2513C75.7472 33.9372 75.4614 33.8927 75.1711 33.8475C74.9705 33.8163 74.7678 33.7848 74.5968 33.6636V33.1795C74.5968 32.7396 74.597 32.2998 74.5972 31.86C74.5978 30.5403 74.5983 29.2205 74.5938 27.9006C74.5935 27.8013 74.5962 27.7019 74.5989 27.6024C74.6081 27.262 74.6174 26.92 74.5103 26.5836C74.4737 26.4677 74.4604 26.3149 74.5327 26.2072C74.8673 26.0341 75.2058 26.049 75.543 26.0638C75.6232 26.0673 75.7034 26.0709 75.7834 26.0718C75.9329 26.2704 76.0118 26.4933 76.0893 26.7124C76.1412 26.8589 76.1924 27.0037 76.2638 27.1385C76.3315 27.2661 76.3824 27.4022 76.4336 27.539C76.5186 27.7662 76.6045 27.9957 76.7696 28.1929L76.7963 28.1944C77.1769 28.2155 77.5527 28.2364 77.9664 28.0359C78.1001 27.5479 78.0817 27.0326 78.0631 26.5126C78.0546 26.2766 78.0462 26.039 78.0519 25.8031C78.0631 25.3344 77.9623 24.8729 77.7506 24.4134C77.4198 24.4023 77.0901 24.3975 76.7612 24.3926C76.1787 24.3841 75.5987 24.3756 75.0192 24.3324C74.1154 24.2636 73.2026 24.3139 72.2907 24.3888C71.5993 24.4459 70.9021 24.4324 70.2047 24.419C69.9002 24.4131 69.5956 24.4072 69.2916 24.4072H68.7563C68.5404 24.7453 68.5476 25.0993 68.5547 25.4488C68.5587 25.6465 68.5627 25.8427 68.5263 26.0339C68.4404 26.4816 68.4599 26.9492 68.4796 27.4208C68.4882 27.6255 68.4968 27.831 68.4968 28.0359C68.9261 28.3349 69.3523 28.2014 69.7696 28.0708L69.776 28.0688C69.9464 27.7311 70.1144 27.3993 70.2816 27.0689C70.4369 26.7621 70.5915 26.4565 70.7469 26.1488C70.9265 26.1663 71.0997 26.1619 71.2688 26.1576C71.4955 26.1519 71.715 26.1463 71.9335 26.1939V33.6739C71.7754 33.8147 71.5736 33.8499 71.3758 33.8843C71.1241 33.9282 70.8789 33.9709 70.7387 34.2288V35.2031C70.9087 35.3806 71.1051 35.3877 71.3127 35.3877C72.3689 35.3847 73.4246 35.3851 74.4728 35.3854L75.5158 35.3857Z" fill="#495E57"/>
	<path d="M140.03 31.2872C140.03 31.4777 140.034 31.6611 140.037 31.8395C140.043 32.2264 140.049 32.5896 140.022 32.9497C139.971 33.6369 139.843 34.3159 139.621 34.9713C139.517 35.2769 139.394 35.3754 139.068 35.3826C138.76 35.39 138.451 35.3888 138.143 35.3876C138.027 35.3871 137.911 35.3867 137.796 35.3867L136.518 35.3851C135.028 35.3831 133.538 35.3812 132.048 35.3836C131.789 35.3836 131.541 35.3774 131.316 35.1682C131.26 34.9476 131.268 34.7156 131.276 34.478C131.28 34.3598 131.284 34.2402 131.28 34.12C131.413 33.9714 131.593 33.9314 131.775 33.8906C131.958 33.8498 132.144 33.8084 132.288 33.6564V26.0287C132.164 25.8947 131.986 25.8575 131.804 25.8197C131.56 25.7689 131.31 25.7168 131.178 25.4277C131.277 25.1774 131.292 24.8913 131.283 24.6154C131.338 24.5097 131.398 24.4246 131.512 24.4174C131.617 24.4113 131.722 24.4059 131.827 24.4005C132.124 24.3852 132.42 24.37 132.717 24.3374C132.851 24.3227 132.997 24.3459 133.146 24.3695C133.267 24.3887 133.39 24.4082 133.51 24.4082H136.173C136.313 24.482 136.391 24.5692 136.454 24.682V25.6092C136.24 25.8057 135.97 25.8425 135.698 25.8796C135.434 25.9155 135.169 25.9518 134.948 26.1333V29.601C134.948 29.7277 134.952 29.8549 134.956 29.982C134.965 30.284 134.974 30.5864 134.932 30.88C134.885 31.2 134.85 31.5169 134.85 31.8379C134.85 31.9127 134.85 31.9875 134.849 32.0625C134.845 32.5467 134.841 33.0348 135 33.5313C135.044 33.5969 135.13 33.6328 135.241 33.6328C135.868 33.6328 136.496 33.6328 137.123 33.6369C137.361 33.6379 137.529 33.5487 137.657 33.3343C137.995 32.7682 138.333 32.201 138.589 31.5928C138.661 31.4256 138.731 31.2923 138.903 31.1856C139.023 31.1989 139.147 31.1922 139.275 31.1853C139.52 31.1719 139.776 31.1581 140.029 31.2872H140.03Z" fill="#495E57"/>
	<path d="M45.7015 35.1056C45.7666 35.2144 45.847 35.2995 45.9813 35.3733H53.7626C53.9082 35.2738 54.0099 35.1826 54.0506 35.0123C54.0807 34.8869 54.1143 34.7623 54.1479 34.6378C54.2631 34.2102 54.3782 33.7833 54.3498 33.3282C54.3432 33.2195 54.3636 33.1113 54.3839 33.0037C54.3917 32.9621 54.3996 32.9204 54.4058 32.879C54.4831 32.36 54.4648 31.8369 54.4312 31.2841C54.2465 31.3054 54.0743 31.2718 53.9018 31.2383C53.6752 31.1942 53.4482 31.15 53.1917 31.2297C52.8569 31.9836 52.4915 32.761 52.0448 33.5169C51.4854 33.6672 50.9154 33.6539 50.3277 33.6403C50.0409 33.6336 49.7498 33.6269 49.4537 33.639C49.4576 33.3245 49.436 33.0223 49.4149 32.7276C49.3969 32.4754 49.3793 32.2287 49.3784 31.9846C49.3768 31.4808 49.3687 30.9768 49.3606 30.473C49.3372 29.0203 49.3139 27.5699 49.4476 26.1344C49.6525 25.9691 49.8941 25.9273 50.136 25.8854C50.406 25.8387 50.6762 25.7919 50.8958 25.5733C50.8669 25.4348 50.8757 25.2907 50.8846 25.1434C50.8986 24.9112 50.9132 24.6709 50.7818 24.4318H45.7656C45.6496 24.841 45.6821 25.2369 45.7188 25.6256C45.9105 25.7852 46.1338 25.8343 46.3567 25.8832C46.5148 25.9179 46.6727 25.9526 46.8189 26.0267C46.7975 26.367 46.7997 26.7053 46.802 27.0428C46.8053 27.5395 46.8086 28.0346 46.7365 28.5323C46.6741 28.9669 46.7158 29.4125 46.7574 29.8573C46.7714 30.0077 46.7855 30.1579 46.7955 30.3077C46.8387 30.9504 46.8292 31.5964 46.8197 32.2425C46.8151 32.5542 46.8105 32.866 46.8118 33.1774C46.8128 33.4082 46.7721 33.6144 46.6123 33.7928C46.5233 33.8261 46.4275 33.8461 46.3314 33.8661C46.087 33.917 45.841 33.9683 45.7015 34.24V35.1056Z" fill="#495E57"/>
	<path d="M97.4135 31.3098C97.3372 32.0808 97.3413 32.8712 97.512 33.6452C97.3434 33.7795 97.1601 33.8382 96.9796 33.896C96.802 33.9529 96.6269 34.0089 96.4711 34.1355C96.4993 34.2625 96.4651 34.3909 96.4299 34.5232C96.4143 34.5822 96.3984 34.6419 96.3877 34.7026C96.3165 35.1129 96.519 35.3529 96.9291 35.3775C97.0136 35.3826 97.0991 35.3806 97.1835 35.3775C97.4986 35.366 97.8134 35.3641 98.1283 35.3622C98.6546 35.3591 99.1813 35.3559 99.7105 35.3078C100.444 35.2414 101.185 35.2583 101.926 35.2752C102.238 35.2823 102.55 35.2894 102.861 35.2903C102.927 35.2914 102.995 35.3057 103.059 35.3221C103.402 35.4079 103.746 35.3956 104.08 35.3837C104.249 35.3776 104.415 35.3716 104.578 35.3785C104.602 35.3474 104.623 35.3227 104.641 35.3017C104.673 35.264 104.695 35.2383 104.702 35.2093C104.873 34.5252 105.006 33.8339 105.134 33.1406C105.22 32.6698 105.236 32.198 105.226 31.7232C105.219 31.3714 105.05 31.2032 104.699 31.1837C104.552 31.1753 104.404 31.1773 104.243 31.1795C104.166 31.1805 104.086 31.1816 104.002 31.1816C103.825 31.4703 103.665 31.7692 103.505 32.0677C103.22 32.6007 102.935 33.1324 102.553 33.6011C102.208 33.638 100.304 33.5283 100.041 33.4534C100.041 32.9478 100.042 32.4416 100.042 31.935V31.934C100.044 30.7017 100.045 29.4667 100.038 28.2329C100.036 27.9321 100.066 27.6336 100.096 27.3369C100.137 26.9304 100.178 26.5271 100.135 26.1252C100.314 26.0315 100.508 25.9842 100.698 25.9378C101.023 25.8587 101.338 25.782 101.551 25.4821V24.5898C101.468 24.4421 101.365 24.4001 101.236 24.4073C100.611 24.4436 99.9874 24.4036 99.3641 24.3637C98.774 24.3258 98.1841 24.288 97.5926 24.315C97.3553 24.3262 97.1189 24.3635 96.8894 24.3998C96.7843 24.4163 96.6807 24.4327 96.579 24.4462C96.3419 24.8319 96.3592 25.2155 96.3887 25.636C96.538 25.7264 96.7089 25.7598 96.8812 25.7934C97.1037 25.8368 97.3283 25.8807 97.5112 26.0483C97.465 26.8287 97.4749 27.6097 97.4848 28.391C97.4971 29.3636 97.5095 30.3367 97.4135 31.3098Z" fill="#495E57"/>
	<path d="M63.3541 33.8688C63.225 33.8424 63.0945 33.8157 62.9616 33.7887H62.9626C62.8069 33.3682 62.7815 32.9825 62.7957 32.5918C62.8052 32.3403 62.8057 32.0889 62.8062 31.8372C62.8071 31.3612 62.8081 30.8845 62.87 30.4061C62.936 29.9015 62.918 29.3846 62.9 28.8698C62.8952 28.7338 62.8905 28.598 62.8873 28.4625C62.8855 28.3852 62.8841 28.308 62.8827 28.2307C62.8761 27.8702 62.8695 27.5096 62.8242 27.1456C62.7986 26.9426 62.828 26.729 62.8577 26.5136C62.8811 26.3438 62.9047 26.1729 62.9015 26.0051C63.2415 25.8861 63.5529 25.7774 63.8775 25.6646C63.9345 25.241 63.9386 24.8431 63.8836 24.4431C63.8572 24.4375 63.8343 24.4316 63.8136 24.4264C63.7736 24.4162 63.7421 24.4082 63.7106 24.4082C62.8674 24.4057 62.0239 24.4044 61.1804 24.403C60.618 24.4021 60.0556 24.4012 59.4933 24.4C59.3712 24.4 59.2562 24.4082 59.1534 24.5528C59.1538 24.6834 59.1243 24.8163 59.094 24.9528C59.0506 25.1487 59.0055 25.352 59.0445 25.5672C59.1574 25.7877 59.3467 25.8318 59.5839 25.8636C59.705 25.8799 59.8294 25.904 59.9573 25.9289C60.0464 25.9462 60.1373 25.9639 60.2301 25.9795V33.6636C60.097 33.8072 59.9133 33.8465 59.7297 33.8859C59.4978 33.9355 59.2661 33.9852 59.1371 34.2451V35.1928C59.2836 35.3436 59.4505 35.3877 59.647 35.3877C60.9506 35.3836 62.2553 35.3856 63.559 35.3877C63.6821 35.3877 63.7961 35.3754 63.907 35.2C63.8855 35.0635 63.9205 34.9197 63.9569 34.7698C64.0171 34.5219 64.0814 34.2572 63.9019 33.9805C63.72 33.9437 63.5384 33.9066 63.3541 33.8688Z" fill="#495E57"/>
	<path d="M11.2774 2.69387C11.1433 2.7898 11.0092 2.88569 10.8792 2.98665L10.8761 2.9846C11.0389 3.18255 11.2069 3.08819 11.3677 2.98768C11.734 2.75794 12.1462 2.65845 12.5594 2.59486C12.826 2.55383 13.0957 2.50973 13.3522 2.44204C13.6208 2.37127 13.8824 2.35589 14.1531 2.35794C14.2516 2.35879 14.351 2.3632 14.4505 2.36761C14.7097 2.37909 14.9695 2.39061 15.2166 2.33947C15.5797 2.26459 15.9399 2.25466 16.3026 2.24466C16.3771 2.24261 16.4516 2.24056 16.5263 2.23794C16.9554 2.22272 17.3826 2.2573 17.8098 2.29188C18.2753 2.32956 18.7409 2.36724 19.209 2.3405C19.3077 2.33435 19.4135 2.35896 19.5072 2.39281C19.9112 2.53742 20.3284 2.57024 20.7528 2.56819C20.7926 2.56799 20.8327 2.56724 20.8728 2.56648C21.0372 2.56338 21.2034 2.56024 21.3604 2.59486C21.8387 2.7005 22.318 2.7846 22.8096 2.78255C22.821 2.78246 22.8325 2.78226 22.844 2.78205C22.9671 2.77982 23.0937 2.77753 23.1607 2.92101C23.0951 3.05961 22.9771 3.05899 22.8572 3.05837C22.8413 3.05829 22.8254 3.05821 22.8096 3.05845C22.7405 3.05947 22.6715 3.06052 22.6024 3.06157C21.7739 3.07417 20.9453 3.08677 20.1168 3.05742C20.1048 3.057 20.0929 3.05658 20.0809 3.05616C19.7708 3.04518 19.4549 3.03399 19.154 3.09127C18.8225 3.15487 18.4939 3.15786 18.1624 3.16087L18.1465 3.16101C17.6896 3.16512 17.2316 3.16922 16.7747 3.1723C16.5874 3.17324 16.3996 3.16925 16.2118 3.16526C15.7885 3.15625 15.3653 3.14726 14.9479 3.19486C14.5312 3.24215 14.1171 3.24925 13.7025 3.25636C13.5956 3.2582 13.4887 3.26003 13.3817 3.26255C13.0092 3.27178 12.6367 3.27999 12.2643 3.28204C12.0668 3.28306 11.8867 3.32306 11.7025 3.42563C12.0526 3.86973 12.4027 4.2564 12.8179 4.58665C13.0825 4.79691 13.344 5.02563 13.5282 5.31486C13.7114 5.60204 13.9628 5.78768 14.2742 5.89742C14.3541 5.92549 14.4328 5.9562 14.5115 5.98688C14.7432 6.07729 14.9745 6.16752 15.2359 6.18973C15.4924 6.21229 15.7549 6.29742 15.9849 6.46255C16.4286 6.7805 16.9365 6.96614 17.4555 7.12101L17.4615 7.12282C17.8279 7.23299 18.1961 7.3437 18.5241 7.55281C18.5203 7.38047 18.6345 7.38473 18.7442 7.38882C18.7533 7.38916 18.7624 7.38949 18.7714 7.38973C19.3221 7.40258 19.8537 7.2881 20.3856 7.17354C20.4907 7.15092 20.5957 7.1283 20.7009 7.10665C21.7491 6.89024 22.7556 6.54153 23.7611 6.17947C24.8724 5.77947 25.9298 5.27076 26.8956 4.59076C27.2182 4.36409 27.5398 4.10665 27.7688 3.8246C27.8166 3.54358 27.7261 3.31383 27.6406 3.13947C27.4381 2.72409 27.2182 2.28512 26.7023 2.14665C26.6192 2.12408 26.5413 2.08473 26.4633 2.04531C26.4208 2.02386 26.3783 2.00238 26.3349 1.98358C25.9054 1.79589 25.4658 1.62665 25.0058 1.54153C24.3127 1.41332 23.6461 1.21742 22.9989 0.932296C22.9021 0.889796 22.8062 0.844461 22.7101 0.799056C22.4144 0.659276 22.1174 0.518834 21.7878 0.45845C21.4552 0.398018 21.126 0.32144 20.7944 0.244287C20.6533 0.211446 20.5117 0.178502 20.3692 0.146655C20.3641 0.0984496 20.359 0.0492188 20.3539 -0.0010376H16.6902C16.6851 0.0492188 16.68 0.0984496 16.6749 0.144603C16.2506 0.318962 15.8364 0.476911 15.3784 0.534347C15.1606 0.561014 14.9174 0.601014 14.7098 0.733321C13.9842 1.19486 13.227 1.59486 12.4037 1.85537C12.309 1.88614 12.2001 1.92204 12.135 1.99076C11.8789 2.26378 11.578 2.47894 11.2774 2.69387Z" fill="#495E57"/>
	<path fill-rule="evenodd" clip-rule="evenodd" d="M9.5532 3.91501C9.5343 3.91809 9.51599 3.92108 9.49915 3.92509H9.50119C9.1338 4.36817 8.8692 4.80202 8.69619 5.28509C8.61478 5.51279 8.51097 5.71689 8.35425 5.90253C7.97668 6.34971 7.74974 6.87381 7.61845 7.44407C7.53556 7.8037 7.45168 8.16305 7.36781 8.52238C7.22516 9.13352 7.08253 9.74459 6.94474 10.3569C6.91421 10.4861 6.91726 10.6338 6.94474 10.7641C6.97898 10.928 7.00073 11.0941 7.02249 11.2604C7.05764 11.5291 7.09284 11.7981 7.18085 12.0584C7.26124 12.2964 7.30806 12.5538 7.32231 12.8051C7.34368 13.1764 7.46987 13.5036 7.67036 13.801C7.80136 13.9956 7.92743 14.1935 8.05351 14.3913C8.32801 14.822 8.60255 15.2527 8.92822 15.6513C9.34446 16.161 9.80039 16.5918 10.4263 16.8184C10.7448 16.9333 11.041 17.0912 11.3198 17.2882C11.5813 17.4728 11.8531 17.6513 12.1421 17.7856C12.9196 18.1477 13.7073 18.4902 14.497 18.8277C14.6548 18.8954 14.7952 18.9754 14.9326 19.0769C15.3112 19.3579 15.6908 19.6379 16.1711 19.7292C16.506 19.7928 16.8062 19.9446 17.083 20.1425C17.4158 20.3795 17.7893 20.5241 18.1719 20.6615C18.3887 20.7395 18.5698 20.7056 18.754 20.6154C18.9562 20.5154 19.0308 20.3192 19.0943 20.1525C19.098 20.1429 19.1016 20.1334 19.1051 20.1241C19.0736 20.015 19.0359 19.9094 18.9991 19.8062C18.9207 19.5864 18.846 19.3772 18.8426 19.1671C18.8373 18.8713 18.8058 18.5777 18.7742 18.2843C18.7331 17.9013 18.692 17.5186 18.7093 17.1313C18.7162 16.9802 18.7322 16.8291 18.7481 16.6787C18.7698 16.4737 18.7914 16.2698 18.7897 16.0687C18.7869 15.8342 18.7097 15.6006 18.6325 15.367C18.5965 15.2584 18.5606 15.1497 18.5322 15.041C18.52 14.9928 18.522 14.9395 18.524 14.8882C18.5424 14.4236 18.4671 13.9764 18.3266 13.5333C18.235 13.243 18.2004 12.9395 18.1974 12.6307C18.1933 12.2164 18.0773 11.8287 17.8432 11.4851C17.6987 11.2728 17.5878 11.043 17.5043 10.803C17.2448 10.0523 16.7573 9.47074 16.1579 8.98356C15.7335 8.63894 15.3631 8.2492 15.014 7.83074C14.966 7.77318 14.919 7.71479 14.872 7.65642C14.6352 7.36219 14.399 7.06876 14.0381 6.88817C13.517 6.62766 13.1384 6.18971 12.8036 5.71381C12.7364 5.6174 12.654 5.52407 12.5604 5.45433C12.2682 5.23816 12.0159 4.97906 11.7638 4.7202C11.6128 4.56516 11.4618 4.41019 11.3025 4.26458C10.8405 3.84099 10.3408 3.51279 9.68335 3.87792C9.64422 3.90015 9.59712 3.90784 9.5532 3.91501ZM10.268 6.18509C10.3553 6.69086 10.4459 7.18436 10.6145 7.66048C10.9601 8.63751 11.4037 9.571 11.8472 10.5043C11.9131 10.6428 11.9789 10.7813 12.0444 10.92C12.1417 11.1258 12.233 11.3349 12.3243 11.5441C12.5518 12.0655 12.7796 12.5875 13.1028 13.0625C13.3599 13.4399 13.5996 13.8297 13.8391 14.219C13.884 14.292 13.9289 14.365 13.9739 14.4379C14.5917 15.44 15.2695 16.3877 16.2526 17.0666C16.3025 17.1011 16.3477 17.1429 16.3951 17.1868C16.4972 17.2815 16.6095 17.3855 16.8021 17.4451C16.6791 17.2373 16.5611 17.0357 16.4458 16.839C16.1833 16.391 15.9353 15.9676 15.6765 15.5507C15.5056 15.2759 15.357 14.9989 15.2522 14.6902C15.1382 14.3548 15.0008 14.0205 14.8288 13.7118C14.6787 13.4415 14.514 13.1797 14.3493 12.9179C14.2158 12.7057 14.0824 12.4936 13.9566 12.2769C13.9006 12.1802 13.8433 12.0841 13.7859 11.9881C13.5568 11.6042 13.3275 11.22 13.1801 10.7918C13.002 10.2748 12.7324 9.80817 12.4311 9.35279C12.3521 9.23317 12.2698 9.11511 12.1874 8.99694C11.9292 8.62675 11.6703 8.25548 11.5091 7.83176C11.2847 7.23979 10.8655 6.80533 10.442 6.36637C10.3839 6.30617 10.3257 6.24588 10.268 6.18509Z" fill="#495E57"/>
	<path d="M10.268 6.18307C10.2675 6.18255 10.267 6.18204 10.2665 6.18153L10.2675 6.1805C10.2677 6.18136 10.2678 6.18221 10.268 6.18307Z" fill="#F4CE14"/>
	<path d="M10.268 6.18307C10.3554 6.68884 10.4459 7.18233 10.6146 7.65845C10.9612 8.63942 11.4065 9.57579 11.8514 10.5113C11.9159 10.6468 11.9803 10.7823 12.0444 10.9179C12.1412 11.123 12.232 11.331 12.3227 11.539C12.5508 12.0616 12.7789 12.5844 13.1028 13.0605C13.3673 13.4487 13.6134 13.8493 13.8597 14.2501C13.8978 14.312 13.9358 14.374 13.974 14.4359C14.5917 15.4379 15.2695 16.3856 16.2526 17.0646C16.3026 17.0991 16.3477 17.1409 16.3951 17.1848C16.4972 17.2794 16.6096 17.3835 16.8021 17.4431C16.6792 17.2353 16.5611 17.0337 16.4458 16.837C16.1834 16.389 15.9354 15.9656 15.6766 15.5487C15.5066 15.2738 15.357 14.9969 15.2522 14.6882C15.1372 14.3528 15.0008 14.0185 14.8288 13.7097C14.6787 13.4395 14.514 13.1777 14.3493 12.9158C14.2158 12.7037 14.0824 12.4915 13.9567 12.2749C13.9006 12.1782 13.8433 12.0821 13.786 11.986C13.5568 11.6022 13.3275 11.2179 13.1802 10.7897C13.0021 10.2728 12.7324 9.80614 12.4311 9.35076C12.3519 9.23083 12.2693 9.11253 12.1867 8.99413C11.9288 8.62448 11.6702 8.25388 11.5091 7.82973C11.2847 7.23776 10.8655 6.80331 10.442 6.36435C10.3839 6.30414 10.3257 6.24386 10.268 6.18307Z" fill="#F4CE14"/>
	<path fill-rule="evenodd" clip-rule="evenodd" d="M30.6317 42.7237C30.6379 42.6303 30.6441 42.5376 30.6996 42.4554L30.6986 42.4565C30.668 42.437 30.666 42.4134 30.6935 42.3908C30.6995 42.3854 30.7074 42.3822 30.7155 42.3789C30.7197 42.3772 30.7239 42.3755 30.7281 42.3734C30.8522 41.5457 31.1392 40.7693 31.4924 40.0185C31.6237 39.7375 31.7214 39.4493 31.7397 39.1436C31.758 38.8349 31.818 38.5406 31.9188 38.2513C31.8883 38.2318 31.8862 38.2093 31.9147 38.1867C31.9227 38.1802 31.9327 38.1763 31.9425 38.1724C31.9451 38.1714 31.9478 38.1704 31.9503 38.1693C31.9492 38.0664 31.9781 37.9704 32.0071 37.8737C32.0316 37.7921 32.0563 37.7099 32.0633 37.6226C32.0662 37.5871 32.0691 37.5516 32.072 37.5161C32.1685 36.3371 32.265 35.1572 32.7462 34.0749C32.7272 34.0045 32.7082 33.9369 32.6897 33.8711C32.6497 33.7292 32.6122 33.5958 32.5823 33.4606C32.5314 33.2257 32.5101 32.9857 32.6098 32.758C32.8408 32.2308 32.853 31.6708 32.8581 31.1108C32.8589 31.0196 32.8618 30.9278 32.8647 30.8359C32.8732 30.5684 32.8817 30.2999 32.8378 30.0411C32.7747 29.6657 32.7329 29.2903 32.796 28.9252C32.8917 28.3652 32.7757 27.8441 32.5752 27.3426C32.3533 26.7857 32.2821 26.2349 32.4694 25.6544C32.4467 25.5911 32.4236 25.5279 32.4006 25.4648C32.249 25.0492 32.098 24.6352 32.0521 24.1918L31.9982 24.1375C32.0033 24.1329 32.0081 24.1282 32.0129 24.1236C32.0178 24.119 32.0226 24.1144 32.0277 24.1098C31.9419 23.7737 31.8152 23.4528 31.6885 23.1319C31.6288 22.9808 31.5691 22.8297 31.5137 22.677C31.4489 22.498 31.376 22.3214 31.303 22.1448C31.1172 21.6951 30.9313 21.2451 30.8787 20.7539C30.839 20.3836 30.6894 20.077 30.4879 19.7775C30.4362 19.7008 30.3817 19.6245 30.327 19.5481C30.1513 19.3027 29.974 19.0548 29.8824 18.7795C29.6493 18.079 29.3145 17.4595 28.8545 16.8862C28.6692 16.6551 28.536 16.3807 28.4035 16.1076C28.3642 16.0268 28.3251 15.9461 28.2846 15.8667C28.1258 15.5559 27.9111 15.2985 27.6241 15.1077C27.3656 14.9354 27.1651 14.7149 26.9972 14.4523C26.8792 14.267 26.7534 14.0869 26.6275 13.9068C26.5396 13.7809 26.4516 13.655 26.3663 13.5272C26.2808 13.398 26.1912 13.2749 26.064 13.1867C25.6526 12.8999 25.2992 12.5479 24.946 12.1961C24.698 11.9491 24.4501 11.7022 24.1823 11.478L24.178 11.4744C23.5688 10.9658 22.9563 10.4546 22.2487 10.0882C21.9291 9.92209 21.635 9.7385 21.4162 9.4503C21.2676 9.25338 21.0814 9.12107 20.8463 9.05543C20.2459 8.88927 19.7624 8.52825 19.2943 8.1303C19.2367 8.0812 19.1805 8.02981 19.1242 7.97832C18.9428 7.81251 18.7605 7.64575 18.526 7.55184C18.1962 7.34158 17.8258 7.22978 17.4574 7.12004C16.9384 6.96414 16.4305 6.77953 15.9868 6.46158C15.7568 6.29645 15.4953 6.2103 15.2378 6.18876C14.9774 6.16734 14.746 6.07689 14.5142 5.98634C14.4353 5.95548 14.3563 5.92461 14.2761 5.89645C13.9636 5.78671 13.7133 5.60107 13.5301 5.31389C13.3449 5.02363 13.0844 4.79594 12.8198 4.58568C12.4035 4.25543 12.0534 3.86876 11.7044 3.42466C11.8886 3.32107 12.0687 3.28107 12.2661 3.28107C12.6386 3.28004 13.0111 3.27081 13.3835 3.26158C13.4905 3.25906 13.5975 3.25722 13.7044 3.25539C14.119 3.24828 14.5331 3.24118 14.9498 3.19389C15.3674 3.14696 15.7909 3.15573 16.2146 3.1645C16.402 3.16839 16.5895 3.17227 16.7765 3.17132C17.2335 3.16927 17.6914 3.16517 18.1484 3.16004L18.1803 3.15966C18.5062 3.15575 18.8287 3.15188 19.1559 3.0903C19.457 3.03297 19.7742 3.04423 20.0838 3.05522C20.0954 3.05563 20.107 3.05604 20.1186 3.05645C20.9472 3.0858 21.7758 3.0732 22.6043 3.0606C22.6734 3.05955 22.7424 3.0585 22.8115 3.05748C22.8273 3.05724 22.8432 3.05732 22.859 3.0574C22.9789 3.05802 23.0969 3.05863 23.1626 2.92004C23.0963 2.77805 22.9725 2.77966 22.85 2.78125C22.8371 2.78141 22.8242 2.78158 22.8115 2.78158C22.3199 2.78363 21.8416 2.69953 21.3623 2.59389C21.2052 2.55927 21.039 2.56241 20.8747 2.56551C20.8345 2.56626 20.7945 2.56702 20.7547 2.56722C20.3303 2.56927 19.9131 2.53645 19.509 2.39184C19.4144 2.35799 19.3096 2.33338 19.2109 2.33953C18.7428 2.36627 18.2772 2.32859 17.8117 2.29091C17.3844 2.25633 16.9573 2.22175 16.5282 2.23697C16.4535 2.23959 16.3789 2.24165 16.3044 2.24371C15.9422 2.2537 15.5814 2.26365 15.2185 2.3385C14.971 2.38897 14.7108 2.37768 14.4513 2.36641C14.3521 2.36211 14.2531 2.35782 14.155 2.35697C13.8843 2.35491 13.6227 2.3703 13.354 2.44107C13.0966 2.50876 12.8279 2.55286 12.5613 2.59389C12.1481 2.65748 11.7349 2.75697 11.3695 2.98671C11.2087 3.08722 11.0398 3.18261 10.878 2.98363C10.7438 2.99866 10.6358 2.93765 10.5294 2.87756C10.4615 2.8392 10.3943 2.80122 10.3213 2.78363C10.0661 2.84761 9.81995 2.93386 9.57437 3.01993C9.26482 3.12842 8.9561 3.23662 8.63093 3.29953C8.29611 3.36414 7.97655 3.5785 7.72925 3.84517C7.43819 4.16004 7.1105 4.42773 6.7655 4.67594C6.63727 4.76825 6.54364 4.86671 6.48665 5.02261C6.3401 5.42363 6.14064 5.79799 5.88214 6.13953C5.75493 6.30773 5.69285 6.48927 5.70405 6.70876C5.74593 7.54591 5.62289 8.36698 5.49982 9.18831C5.46141 9.44468 5.42299 9.70107 5.38958 9.95799C5.36617 10.1395 5.28374 10.2841 5.17688 10.4134C4.91126 10.7365 4.76675 11.1077 4.68737 11.5139C4.68298 11.5362 4.67877 11.5587 4.67454 11.5814C4.65031 11.7113 4.62528 11.8455 4.56118 11.9529C4.06819 12.7772 3.78103 13.6794 3.49325 14.5837C3.44122 14.7472 3.38917 14.9107 3.33587 15.0739C3.12928 15.7057 2.82499 16.2893 2.34668 16.7795C1.93451 17.2011 1.75438 17.759 1.63226 18.3303C1.48571 19.0124 1.32695 19.6882 0.876112 20.2472C0.765184 20.3847 0.725494 20.5426 0.698016 20.717C0.633902 21.119 0.552486 21.5211 0.318417 21.8677C0.183064 22.0677 0.163728 22.2882 0.223772 22.5057C0.340806 22.9293 0.314346 23.3457 0.227842 23.7693C0.197202 23.9179 0.187516 24.0711 0.178524 24.2133C0.174674 24.2742 0.17095 24.3331 0.165763 24.3888C0.0897864 24.4537 0.0465281 24.4325 0.00421017 24.4118C0.00174774 24.4106 -0.000711506 24.4094 -0.00317383 24.4082V24.9211C0.0446577 24.9067 0.08333 24.9221 0.08333 24.9723C0.08333 25.0226 0.04364 25.038 -0.00317383 25.0236V25.9467C0.00254313 25.9535 0.0100625 25.9603 0.017609 25.9672C0.0476773 25.9945 0.0781777 26.0222 -0.00317383 26.0493V26.1518C0.0446577 26.1385 0.0812946 26.1559 0.0812946 26.2041C0.0812946 26.2544 0.0426223 26.2677 -0.00317383 26.2544V26.5621C0.0103476 26.5562 0.0238691 26.5505 0.0371253 26.5449C0.053801 26.5379 0.070057 26.531 0.0853654 26.5241C0.147445 26.5262 0.177975 26.5662 0.190188 26.6154C0.195129 26.635 0.200086 26.6546 0.205045 26.6742C0.345107 27.2281 0.485735 27.7842 0.267532 28.3518C0.197312 28.5344 0.18917 28.7047 0.240055 28.8954C0.423239 29.5836 0.503637 30.2882 0.492442 31.0011C0.488372 31.2606 0.521955 31.5016 0.642043 31.7354C0.867971 32.1765 0.967705 32.6544 1.01452 33.1447C1.02266 33.1534 1.0308 33.1618 1.03894 33.1703C1.04708 33.1788 1.05523 33.1872 1.06337 33.1959C1.06032 33.1979 1.05734 33.1998 1.05442 33.2016C1.04663 33.2065 1.03922 33.2112 1.03182 33.2164C1.08341 33.3879 1.11518 33.5642 1.14695 33.7406C1.191 33.9852 1.23507 34.2298 1.33204 34.4616C1.37885 34.478 1.40837 34.5047 1.39106 34.559C1.40666 34.5989 1.4227 34.6387 1.43874 34.6785C1.53154 34.9085 1.6243 35.1385 1.63124 35.3939C1.63534 35.398 1.63944 35.402 1.6435 35.406C1.65761 35.4199 1.67129 35.4333 1.68314 35.4493C1.68467 35.4516 1.67592 35.4619 1.66801 35.4713C1.66535 35.4744 1.6628 35.4775 1.66075 35.48C1.67137 35.5177 1.68223 35.5554 1.69309 35.5931C1.76138 35.8298 1.82965 36.0665 1.8358 36.317C1.83862 36.32 1.84144 36.323 1.84426 36.3259C1.85869 36.3412 1.87289 36.3562 1.88566 36.3734C1.88634 36.3741 1.87853 36.3815 1.87052 36.3891C1.86644 36.393 1.8623 36.3969 1.8592 36.4C1.90464 36.4687 1.91322 36.5462 1.92183 36.6239C1.92633 36.6645 1.93083 36.7052 1.94062 36.7447C2.06579 37.2565 2.21132 37.7611 2.56243 38.1734L2.56694 38.1785C2.58803 38.2026 2.61006 38.2277 2.62145 38.2565C2.92527 38.9888 3.40364 39.602 3.88188 40.215C4.12292 40.5239 4.36394 40.8328 4.58255 41.157C4.71688 41.357 4.83087 41.559 4.92348 41.7785C5.28374 42.6359 5.80683 43.3764 6.52736 43.9611C6.79501 44.1785 7.02705 44.4123 7.19089 44.717C7.27943 44.8811 7.37408 45.0462 7.5247 45.1631C8.03774 45.5634 8.43723 46.0702 8.83537 46.5752C8.9095 46.6692 8.98359 46.7632 9.05836 46.8564C9.39522 47.2759 9.79008 47.6144 10.2206 47.9098C10.9411 48.4031 11.5802 48.9785 12.1247 49.6606C12.231 49.7935 12.3648 49.8874 12.4989 49.9816C12.5303 50.0036 12.5617 50.0257 12.5928 50.0482C13.3175 50.5708 14.1373 50.8872 14.9576 51.2038C15.0969 51.2576 15.2363 51.3114 15.3752 51.3662C16.3318 51.7447 17.2966 52.1006 18.3194 52.2544C18.6023 52.2965 18.8302 52.4288 19.0379 52.6021C19.3208 52.837 19.6424 52.9508 19.9945 53.037C20.6651 53.2011 21.2462 53.5426 21.6655 54.1057C21.8436 54.3457 22.0411 54.5323 22.3148 54.6472C22.7514 54.8301 23.1002 55.1354 23.4493 55.4409C23.5974 55.5705 23.7455 55.7002 23.9004 55.8206C23.9645 55.8708 23.9594 55.9354 23.9167 55.999H25.0361C25.0219 55.9508 25.0371 55.9108 25.087 55.9108C25.1369 55.9108 25.1521 55.9508 25.1379 55.999H25.7485C25.7098 55.9344 25.6997 55.8657 25.777 55.8308C25.8266 55.8085 25.8783 55.7913 25.9295 55.7742C26.036 55.7387 26.1403 55.7039 26.2187 55.6257C26.2547 55.5278 26.2883 55.4301 26.3217 55.3331C26.4007 55.1036 26.4783 54.8783 26.582 54.6657C26.696 54.4329 26.7224 54.2031 26.6492 53.9754C26.469 53.4123 26.5657 52.8626 26.7011 52.317C26.811 51.8729 26.928 51.4277 27.0939 51.0031C27.1101 50.9615 27.1262 50.9197 27.1423 50.8778C27.3138 50.4315 27.488 49.978 27.903 49.678C28.0434 49.5764 28.1269 49.4277 28.1747 49.2585C28.2035 49.1569 28.2359 49.0558 28.2684 48.9547C28.3346 48.7487 28.4007 48.5426 28.4362 48.3313C28.5573 47.6072 28.9054 46.9949 29.2962 46.397L29.3159 46.3668C29.4663 46.1368 29.6178 45.9051 29.689 45.6329C29.6554 45.6165 29.6503 45.5939 29.6768 45.5682C29.6832 45.5625 29.6917 45.5587 29.7004 45.5549C29.7041 45.5533 29.7078 45.5516 29.7114 45.5498C29.7096 45.2193 29.8254 44.9207 29.9415 44.6213C29.9541 44.5889 29.9667 44.5566 29.9791 44.5241C30.0403 44.3649 30.1045 44.2067 30.1687 44.0485C30.3265 43.6598 30.4843 43.271 30.5978 42.8657C30.5673 42.8462 30.5653 42.8226 30.5927 42.8C30.5988 42.7946 30.6066 42.7914 30.6147 42.7881C30.6189 42.7864 30.6232 42.7847 30.6273 42.7826C30.6291 42.763 30.6304 42.7433 30.6317 42.7237ZM8.69403 5.28517C8.86805 4.80209 9.13265 4.36825 9.49902 3.92517H9.49699C9.51373 3.92111 9.53218 3.91809 9.55132 3.91496C9.59499 3.90782 9.64227 3.9001 9.68119 3.87799C10.3376 3.51286 10.8373 3.84107 11.3003 4.26466C11.4597 4.41027 11.6106 4.56523 11.7616 4.72028C12.0137 4.97914 12.2661 5.23823 12.5582 5.4544C12.6518 5.52414 12.7332 5.61748 12.8014 5.71389C13.1352 6.18876 13.5148 6.62773 14.0359 6.88825C14.3968 7.06883 14.633 7.36227 14.8699 7.6565C14.9168 7.71486 14.9639 7.77326 15.0119 7.83081C15.3609 8.2503 15.7314 8.63902 16.1557 8.98363C16.7552 9.47081 17.2426 10.0534 17.5022 10.8031C17.5856 11.0431 17.6965 11.2729 17.841 11.4852C18.0751 11.8298 18.1911 12.2175 18.1952 12.6308C18.1972 12.9395 18.2318 13.2431 18.3244 13.5334C18.4649 13.9765 18.5402 14.4236 18.5219 14.8882C18.5198 14.9385 18.5178 14.9929 18.53 15.0411C18.5585 15.1492 18.5943 15.257 18.63 15.3647C18.7078 15.5993 18.7854 15.8333 18.7875 16.0688C18.7893 16.2699 18.7677 16.4738 18.7459 16.6788C18.73 16.8292 18.714 16.9803 18.7071 17.1313C18.6899 17.5165 18.7309 17.8978 18.772 18.2794C18.8038 18.5745 18.8355 18.8698 18.8404 19.1672C18.8439 19.3773 18.9185 19.5864 18.997 19.8063C19.0338 19.9095 19.0714 20.015 19.103 20.1241C19.0994 20.1335 19.0958 20.143 19.0922 20.1525C19.0287 20.3193 18.954 20.5155 18.7519 20.6154C18.5687 20.7057 18.3865 20.7395 18.1698 20.6616C17.7881 20.5252 17.4136 20.3806 17.0808 20.1426C16.804 19.9447 16.5038 19.7929 16.169 19.7293C15.6886 19.638 15.309 19.358 14.9304 19.077C14.7931 18.9754 14.6526 18.8954 14.4949 18.8277C13.7062 18.4903 12.9185 18.1477 12.1399 17.7857C11.8509 17.6513 11.5792 17.4729 11.3176 17.2882C11.0378 17.0913 10.7426 16.9334 10.4241 16.8185C9.79822 16.5918 9.3423 16.1611 8.92606 15.6513C8.60096 15.2527 8.32607 14.8217 8.05124 14.3909C7.92516 14.1932 7.79909 13.9956 7.66819 13.8011C7.46872 13.5036 7.34151 13.1765 7.32014 12.8052C7.30488 12.5539 7.25908 12.2965 7.17868 12.0585C7.09061 11.7979 7.05542 11.5291 7.02024 11.2603C6.9985 11.0943 6.97677 10.9282 6.94258 10.7641C6.91612 10.6339 6.91306 10.4862 6.94258 10.357C7.08037 9.74465 7.22301 9.13355 7.36566 8.52239C7.44952 8.16308 7.53339 7.80376 7.61629 7.44414C7.74757 6.87491 7.97452 6.35081 8.35208 5.90261C8.50881 5.71696 8.61261 5.51286 8.69403 5.28517Z" fill="#F4CE14"/>
</svg>